<?xml version="1.0" encoding="utf-8"?>
<svg version="1.1" xmlns="http://www.w3.org/2000/svg" xmlns:xlink="http://www.w3.org/1999/xlink" viewBox="0 0 32 32" style="enable-background:new 0 0 32 32;" xml:space="preserve">
	<path d="M16,31C7.7285156,31,1,24.2714844,1,16S7.7285156,1,16,1s15,6.7285156,15,15S24.2714844,31,16,31z M16,3 C8.8320313,3,3,8.8320313,3,16s5.8320313,13,13,13s13-5.8320313,13-13S23.1679688,3,16,3z" fill="hsl(213, 27%, 84%)" />
	<path d="M16,20.2001953c-2.5361328,0-4.5996094-2.0634766-4.5996094-4.6005859C11.4003906,13.0634766,13.4638672,11,16,11 s4.5996094,2.0634766,4.5996094,4.5996094C20.5996094,18.1367188,18.5361328,20.2001953,16,20.2001953z M16,13 c-1.4335938,0-2.5996094,1.1660156-2.5996094,2.5996094S14.5664063,18.2001953,16,18.2001953 s2.5996094-1.1669922,2.5996094-2.6005859S17.4335938,13,16,13z" fill="hsl(213, 27%, 84%)" />
	<path d="M16,31c-2.4619141,0-4.9072266-0.6132813-7.0722656-1.7724609 c-0.3242188-0.1748047-0.5273438-0.5136719-0.5273438-0.8818359v-2.0146484c0-3.1787109,2.5859375-5.765625,5.7646484-5.765625 h3.6699219c3.1787109,0,5.7646484,2.5869141,5.7646484,5.765625v2.0146484c0,0.3681641-0.203125,0.7070313-0.5273438,0.8818359 C20.9072266,30.3867188,18.4619141,31,16,31z M10.4003906,27.7314453c3.4804688,1.6621094,7.71875,1.6621094,11.1992188,0 v-1.4003906c0-2.0761719-1.6884766-3.765625-3.7646484-3.765625h-3.6699219c-2.0761719,0-3.7646484,1.6894531-3.7646484,3.765625 V27.7314453z M22.5996094,28.3457031h0.0097656H22.5996094z" fill="hsl(213, 27%, 84%)" />
</svg>