<svg xmlns="http://www.w3.org/2000/svg" width="20" height="18" fill="none" viewBox="0 0 20 18"><path fill="#fff" fill-rule="evenodd" d="M16.6667 1.66668L3.33333 1.6667C2.22876 1.6667 1.33333 2.56214 1.33333 3.6667V10.3334C1.33333 11.438 2.22876 12.3333 3.33333 12.3333H10C10.1769 12.3333 10.3464 12.4036 10.4714 12.5287L13.3333 15.3905V13C13.3333 12.6319 13.6319 12.3333 14 12.3333H16.6667C17.7712 12.3333 18.6667 11.438 18.6667 10.3334V3.66668C18.6667 2.5621 17.7712 1.66668 16.6667 1.66668ZM3.33332 0.33337L16.6667 0.333344C18.5076 0.333344 20 1.82573 20 3.66668V10.3334C20 12.1743 18.5076 13.6667 16.6667 13.6667H14.6667V17C14.6667 17.2696 14.5043 17.5127 14.2551 17.6159C14.006 17.7191 13.7192 17.662 13.5285 17.4715L9.72389 13.6667H3.33333C1.49239 13.6667 0 12.1743 0 10.3334V3.6667C0 1.82576 1.49237 0.333384 3.33332 0.33337Z" clip-rule="evenodd"/></svg>