<svg xmlns="http://www.w3.org/2000/svg" width="20" height="22" fill="none" viewBox="0 0 20 22"><path stroke="#fff" stroke-width="1.5" d="M2.68368 5.09018L10 1.002L17.3163 5.09018L13.3341 7.30898C12.4329 6.55558 11.2698 6.09479 10 6.09479C8.73018 6.09479 7.56714 6.55558 6.66593 7.30898L2.68368 5.09018ZM8.52778 11.3128C8.52778 10.4945 9.19572 9.82877 10 9.82877C10.8043 9.82877 11.4722 10.4945 11.4722 11.3128C11.4722 12.131 10.8043 12.7967 10 12.7967C9.19572 12.7967 8.52778 12.131 8.52778 11.3128ZM8.13889 16.1826V20.5798L0.75 16.4573V8.27909L4.8555 10.572C4.82107 10.8177 4.80556 11.0656 4.80556 11.3128C4.80556 13.5289 6.1823 15.4328 8.13889 16.1826ZM19.25 16.4573L11.8611 20.5798V16.1826C13.8177 15.4328 15.1944 13.5289 15.1944 11.3128C15.1944 11.0656 15.1789 10.8177 15.1445 10.572L19.25 8.27909V16.4573Z"/></svg>