<svg width="30" height="30" viewBox="0 0 30 30" fill="none" xmlns="http://www.w3.org/2000/svg">
	<circle cx="15" cy="15" r="15" fill="#E2E8F0" />
	<path d="M24.4563 14.4091C24.1722 14.4111 23.8907 14.4644 23.6255 14.5663L20.7915 12.2464C20.8612 11.9935 20.9109 11.7311 20.9109 11.4545C20.9109 9.81655 19.5943 8.5 17.9563 8.5C16.3183 8.5 15.0018 9.81655 15.0018 11.4545C15.0018 11.9225 15.12 12.3586 15.3114 12.751L11.8735 16.8141C11.7359 16.7883 11.5963 16.7745 11.4563 16.7727C11.2448 16.7727 11.045 16.8082 10.8512 16.8602L7.82223 13.8312C7.87541 13.6385 7.91087 13.4388 7.91087 13.2273C7.91087 11.9178 6.85668 10.8636 5.54723 10.8636C4.23778 10.8636 3.18359 11.9178 3.18359 13.2273C3.18359 14.5367 4.23778 15.5909 5.54723 15.5909C5.75878 15.5909 5.9585 15.5555 6.15232 15.5035L9.18132 18.5325C9.12451 18.7288 9.09469 18.932 9.09268 19.1364C9.09269 20.4458 10.1469 21.5 11.4563 21.5C12.7658 21.5 13.82 20.4458 13.82 19.1364C13.82 18.8563 13.7632 18.5927 13.6746 18.3434L17.1172 14.2755C17.3855 14.3535 17.6632 14.4091 17.9563 14.4091C18.4227 14.4065 18.8818 14.2927 19.2953 14.077L22.1305 16.3969C22.1083 16.521 22.0956 16.6467 22.0927 16.7727C22.0927 18.0822 23.1469 19.1364 24.4563 19.1364C25.7658 19.1364 26.82 18.0822 26.82 16.7727C26.82 15.4633 25.7658 14.4091 24.4563 14.4091Z" fill="#6366F1" />
</svg>