<svg width="20" height="24" viewBox="0 0 20 24" fill="none" xmlns="http://www.w3.org/2000/svg">
	<path fill-rule="evenodd" clip-rule="evenodd" d="M10.4239 0.657703C10.1624 0.503178 9.83757 0.503178 9.57606 0.657703L0.409519 6.0743C0.155806 6.22422 0.000141184 6.49701 0.000141184 6.79172C0.000141184 7.08644 0.155806 7.35923 0.409519 7.50915L9.57606 12.9257C9.83757 13.0803 10.1624 13.0803 10.4239 12.9257L19.5904 7.50915C19.8443 7.35923 19.9999 7.08644 19.9999 6.79172C19.9999 6.49701 19.8443 6.22422 19.5904 6.0743L10.4239 0.657703ZM10 11.2404L2.47151 6.79172L10 2.34307L17.5285 6.79172L10 11.2404ZM0.11604 11.7844C0.35017 11.3882 0.861179 11.2568 1.25739 11.4909L10 16.6569L18.7426 11.4909C19.1388 11.2568 19.6498 11.3882 19.8839 11.7844C20.1181 12.1806 19.9868 12.6916 19.5904 12.9257L10.4239 18.3424C10.1624 18.4969 9.83757 18.4969 9.57606 18.3424L0.409519 12.9257C0.0133077 12.6916 -0.118107 12.1806 0.11604 11.7844ZM0.116023 16.7843C0.35017 16.3881 0.861163 16.2568 1.25739 16.4908L10 21.6569L18.7426 16.4908C19.1388 16.2568 19.6498 16.3881 19.8839 16.7843C20.1181 17.1806 19.9868 17.6916 19.5904 17.9257L10.4239 23.3423C10.1624 23.4968 9.83757 23.4968 9.57606 23.3423L0.409519 17.9257C0.0132911 17.6916 -0.118107 17.1806 0.116023 16.7843Z" fill="white" />
</svg>