<svg width="40" height="40" fill="none" xmlns="http://www.w3.org/2000/svg"><circle cx="20" cy="20" r="20" fill="url(#a)"/><path d="M18.222 12H12.89a.89.89 0 0 0-.889.889v5.333a.89.89 0 0 0 .889.89h5.333a.889.889 0 0 0 .89-.89V12.89a.889.889 0 0 0-.89-.889Zm-.889 5.333h-3.555v-3.555h3.555v3.555Zm9.778 3.556h-5.333a.889.889 0 0 0-.89.889v5.333a.889.889 0 0 0 .89.889h5.333a.889.889 0 0 0 .889-.889v-5.333a.889.889 0 0 0-.889-.89Zm-.889 5.333h-3.555v-3.555h3.555v3.555ZM24.444 12a3.56 3.56 0 0 0-3.555 3.556 3.56 3.56 0 0 0 3.555 3.555A3.56 3.56 0 0 0 28 15.556 3.56 3.56 0 0 0 24.444 12Zm0 5.333a1.78 1.78 0 0 1-1.777-1.777c0-.98.797-1.778 1.777-1.778.98 0 1.778.797 1.778 1.778a1.78 1.78 0 0 1-1.778 1.777Zm-8.888 3.556A3.56 3.56 0 0 0 12 24.444 3.56 3.56 0 0 0 15.556 28a3.56 3.56 0 0 0 3.555-3.556 3.56 3.56 0 0 0-3.555-3.555Zm0 5.333a1.78 1.78 0 0 1-1.778-1.778c0-.98.797-1.777 1.778-1.777.98 0 1.777.797 1.777 1.777a1.78 1.78 0 0 1-1.777 1.778Z" fill="#F8FAFC"/><defs><linearGradient id="a" x1="0" y1="20" x2="40" y2="20" gradientUnits="userSpaceOnUse"><stop stop-color="#4776E6"/><stop offset="1" stop-color="#8E54E9"/></linearGradient></defs></svg>