<svg width="600" height="600" viewBox="0 0 601 599" fill="none" xmlns="http://www.w3.org/2000/svg"><ellipse cx="323" cy="289" rx="100" ry="99" fill="hsl(214, 20%, 34%)"/><path d="m332.93 321.704-38.949-21.65-38.948 21.65 24.777 13.731c3.567-3.714 8.6-6.059 14.171-6.059 5.572 0 10.605 2.346 14.172 6.06l24.776-13.732Zm-48.722 27.22c0-5.376 4.398-9.774 9.773-9.774 5.376 0 9.774 4.398 9.774 9.773 0 5.376-4.398 9.774-9.774 9.774-5.375 0-9.773-4.398-9.773-9.774Zm4.887 46.131L250 373.358V330.06l25.07 13.928c-.44 1.563-.636 3.225-.636 4.935 0 9.09 6.206 16.762 14.66 18.912v27.22Zm9.773 0v-27.22c8.454-2.15 14.66-9.822 14.66-18.912 0-1.71-.195-3.372-.635-4.935l25.07-13.928v43.298l-39.095 21.697Z" fill="#3B82F6"/><ellipse cx="323" cy="289.5" rx="186" ry="185.5" stroke="hsl(217, 91%, 60%)" stroke-width="3" stroke-linecap="round" stroke-dasharray="0.25 10"/><ellipse cx="323" cy="288" rx="233" ry="232" stroke="hsl(217, 91%, 60%)" stroke-width="2" stroke-linecap="round"/><path d="M174 286.5c0 82.014 66.71 148.5 149 148.5s149-66.486 149-148.5c0-42.684-18.069-81.162-47-108.25" stroke="hsl(217, 91%, 60%)" stroke-width="2" stroke-linecap="round"/><circle cx="173.5" cy="285.5" r="6.5" fill="hsl(217, 91%, 60%)"/><circle cx="322.5" cy="6.5" r="6.5" transform="rotate(90 322.5 6.5)" fill="hsl(217, 91%, 60%)"/><circle cx="422.5" cy="176.5" r="6.5" fill="hsl(217, 91%, 60%)"/><circle cx="529.5" cy="481.5" r="6.5" transform="rotate(90 529.5 481.5)" fill="hsl(217, 91%, 60%)"/><path d="M322.673 7C167.109 7 41 133.48 41 289.5 41 445.52 167.109 572 322.673 572c80.962 0 153.946-34.259 205.327-89.111" stroke="hsl(217, 91%, 60%)" stroke-width="3" stroke-linecap="round" stroke-dasharray="0.25 10"/><circle cx="76" cy="440" r="34.5" fill="hsl(214, 20%, 34%)"/><path d="M55 434.4c0-1.16.94-2.1 2.1-2.1h9.1c1.16 0 2.1.94 2.1 2.1v11.2a2.1 2.1 0 0 1-2.1 2.1h-9.1a2.1 2.1 0 0 1-2.1-2.1v-11.2Z" fill="hsl(217, 33%, 17%)"/><path d="m64.1 432.159 12.864-8.277c1.397-.899 3.236.105 3.236 1.766v28.704c0 1.661-1.839 2.665-3.236 1.766L64.1 447.841v-15.682Z" fill="hsl(217, 91%, 60%)"/><path d="M84.4 438.25a2.45 2.45 0 0 1 4.9 0v4.2a2.45 2.45 0 0 1-4.9 0v-4.2Zm8.4-2.8a2.45 2.45 0 0 1 4.9 0v10.5a2.45 2.45 0 0 1-4.9 0v-10.5Z" fill="hsl(217, 33%, 17%)"/><circle cx="539" cy="149" r="61.5" fill="hsl(214, 20%, 34%)"/><path d="M538.783 121.658h8.226v28.788h-8.226v-28.788Z" fill="hsl(217, 33%, 17%)"/><path d="M547.01 150.446c0 5.679-4.603 10.282-10.282 10.282-5.678 0-10.281-4.603-10.281-10.282 0-5.678 4.603-10.281 10.281-10.281 5.679 0 10.282 4.603 10.282 10.281Z" fill="hsl(217, 91%, 60%)"/><path d="M507.939 125.771h8.225v28.788h-8.225v-28.788Z" fill="hsl(217, 33%, 17%)"/><path d="M507.939 118.668a3.72 3.72 0 0 1 3.14-3.675l31.63-4.994a3.72 3.72 0 0 1 4.3 3.674v12.098l-39.07 6.169v-13.272Zm8.224 35.892c0 5.678-4.603 10.281-10.281 10.281-5.679 0-10.282-4.603-10.282-10.281 0-5.679 4.603-10.282 10.282-10.282 5.678 0 10.281 4.603 10.281 10.282Z" fill="hsl(217, 91%, 60%)"/><path d="M557.291 150.446h8.226v28.789h-8.226v-28.789Z" fill="hsl(217, 33%, 17%)"/><path d="M557.291 142.266c0-1.213.877-2.247 2.073-2.447l18.272-3.045a3.72 3.72 0 0 1 4.331 3.669v8.908a3.72 3.72 0 0 1-3.108 3.67l-21.568 3.594v-14.349Zm8.225 36.969c0 5.678-4.603 10.282-10.281 10.282-5.679 0-10.282-4.604-10.282-10.282s4.603-10.282 10.282-10.282c5.678 0 10.281 4.604 10.281 10.282Z" fill="hsl(217, 91%, 60%)"/><circle cx="62" cy="285" r="61.5" fill="hsl(214, 20%, 34%)"/><path d="M98.828 284.814c0 20.442-16.572 37.014-37.014 37.014-20.442 0-37.014-16.572-37.014-37.014 0-20.442 16.572-37.014 37.014-37.014 20.442 0 37.014 16.572 37.014 37.014Z" fill="hsl(217, 91%, 60%)"/><path d="M98.828 284.814c0 20.442-16.572 37.014-37.014 37.014-20.442 0-37.014-16.572-37.014-37.014 0-20.442 16.572-37.014 37.014-37.014 20.442 0 37.014 16.572 37.014 37.014Z" fill="url(#paint0_linear)"/><path d="M98.828 284.814c0 20.442-16.572 37.014-37.014 37.014-20.442 0-37.014-16.572-37.014-37.014 0-20.442 16.572-37.014 37.014-37.014 20.442 0 37.014 16.572 37.014 37.014Z" fill="hsl(217, 91%, 60%)"/><path d="M98.828 284.814c0 20.442-16.572 37.014-37.014 37.014-20.442 0-37.014-16.572-37.014-37.014 0-20.442 16.572-37.014 37.014-37.014 20.442 0 37.014 16.572 37.014 37.014Z" fill="url(#paint1_linear)"/><path d="M98.828 284.814c0 20.442-16.572 37.014-37.014 37.014-20.442 0-37.014-16.572-37.014-37.014 0-20.442 16.572-37.014 37.014-37.014 20.442 0 37.014 16.572 37.014 37.014Z" fill="hsl(217, 91%, 60%)"/><path fill-rule="evenodd" clip-rule="evenodd" d="M89.403 260.118H72.127a6.2 6.2 0 0 1-6.2-6.2v-5.912c9.298 1.028 17.558 5.5 23.476 12.112Zm-44.425-8.298c.25.672.386 1.399.386 2.158v6.107a6.2 6.2 0 0 0 6.2 6.2h8.164a6.2 6.2 0 0 1 6.2 6.2v6.107a6.2 6.2 0 0 1-6.2 6.2h-4.051a6.2 6.2 0 0 0-6.2 6.2v6.107a6.2 6.2 0 0 1-6.2 6.2H29.752a36.843 36.843 0 0 1-4.952-18.507c0-14.38 8.2-26.844 20.178-32.972Zm37.304 63.839c9.973-6.631 16.546-17.97 16.546-30.845 0-2.102-.175-4.163-.512-6.169h-7.682a6.2 6.2 0 0 0-6.2 6.2v6.107a6.2 6.2 0 0 1-6.2 6.2h-8.163a6.2 6.2 0 0 0-6.2 6.2v6.107a6.2 6.2 0 0 0 6.2 6.2h12.21Z" fill="hsl(217, 33%, 17%)"/><circle cx="220" cy="537" r="61.5" fill="hsl(214, 20%, 34%)"/><path fill-rule="evenodd" clip-rule="evenodd" d="M214.744 505.425c-18.327 4.336-29.669 22.708-25.333 41.035 4.336 18.327 22.708 29.669 41.035 25.333 18.327-4.336 29.669-22.708 25.333-41.035-4.336-18.327-22.708-29.669-41.035-25.333Zm-13.287 22.556a9.3 9.3 0 0 0-6.909 11.192 9.3 9.3 0 1 0 6.909-11.192Z" fill="hsl(217, 91%, 60%)"/><path d="M209.183 558.814a8.386 8.386 0 1 1 16.32-3.861 8.386 8.386 0 0 1-16.32 3.861Zm20.566-6.962a8.385 8.385 0 0 1 16.32-3.861 8.386 8.386 0 0 1-16.32 3.861Zm1.766-21.672a7.827 7.827 0 1 1 15.233-3.604 7.827 7.827 0 0 1-15.233 3.604Zm-19.28-8.651a8.385 8.385 0 0 1 6.229-10.09 8.385 8.385 0 1 1 3.862 16.319 8.384 8.384 0 0 1-10.091-6.229Z" fill="hsl(217, 33%, 17%)"/><path d="M188.899 507.033c.571-3.896 3.123-8.924 4.585-11.561a1.137 1.137 0 0 1 2.026.027c1.39 2.676 3.804 7.772 4.269 11.682.521 4.389-2.235 11.338-2.235 11.338l-6.72-.092s-2.566-7.021-1.925-11.394Z" fill="hsl(217, 91%, 60%)"/><path d="M187.737 518.311a1.569 1.569 0 0 1 1.59-1.547l10.018.136a1.568 1.568 0 0 1 1.547 1.59l-.621 45.716a6.578 6.578 0 1 1-13.155-.179l.621-45.716Z" fill="hsl(217, 33%, 17%)"/><path fill-rule="evenodd" clip-rule="evenodd" d="M189.139 505.72c.861-3.653 3.028-7.9 4.331-10.249a1.137 1.137 0 0 1 2.026.027c1.245 2.398 3.313 6.738 4.064 10.427a9.734 9.734 0 0 1-5.181 1.388 9.71 9.71 0 0 1-5.24-1.593Z" fill="hsl(217, 33%, 17%)"/><circle cx="199" cy="36" r="29.5" fill="hsl(214, 20%, 34%)"/><path d="M201.457 14.543a2.542 2.542 0 1 1-5.085 0 2.542 2.542 0 0 1 5.085 0Zm-5.933 37.821h6.78v5.556a1.8 1.8 0 0 1-1.8 1.8h-3.18a1.8 1.8 0 0 1-1.8-1.8v-5.556Z" fill="hsl(217, 33%, 17%)"/><path d="M187.737 27.68c-1.253-1.725-.231-4.115 1.866-4.503l3.643-.674a2.735 2.735 0 0 0 2.235-2.582l.082-2.103h6.908l.083 2.121a2.721 2.721 0 0 0 2.214 2.568l3.501.661c2.093.395 3.123 2.771 1.896 4.512-1.942 2.759-4.241 6.317-3.7 9.982.589 3.99 2.555 3.75 3.082 7.746.34 2.577-.371 5.58-.848 7.205-.212.722-.884 1.19-1.637 1.19h-16.09c-.753 0-1.425-.468-1.637-1.19-.477-1.624-1.187-4.628-.848-7.205.527-3.997 2.494-3.756 3.082-7.746.541-3.665-1.831-7.223-3.832-9.982Z" fill="hsl(217, 91%, 60%)"/><path d="M195.494 18.46a1.8 1.8 0 0 1 1.8-1.8h3.45a1.8 1.8 0 0 1 1.8 1.8v1.2h-7.05v-1.2Z" fill="hsl(217, 33%, 17%)"/><path fill-rule="evenodd" clip-rule="evenodd" d="M192.014 37.06a1.2 1.2 0 0 1 1.2-1.2h.043a1.2 1.2 0 0 1 0 2.4h-.043a1.2 1.2 0 0 1-1.2-1.2Zm5.658 0a1.2 1.2 0 0 1 1.2-1.2h.085a1.2 1.2 0 0 1 0 2.4h-.085a1.2 1.2 0 0 1-1.2-1.2Zm5.7 0a1.2 1.2 0 0 1 1.2-1.2h.042a1.2 1.2 0 1 1 0 2.4h-.042a1.2 1.2 0 0 1-1.2-1.2Z" fill="hsl(217, 33%, 17%)"/><circle cx="182" cy="167" r="29.5" fill="hsl(214, 20%, 34%)"/><path fill-rule="evenodd" clip-rule="evenodd" d="M168.13 163.493a3 3 0 0 1 3-3h29.624a3 3 0 0 1 3 3v4.239a2.77 2.77 0 1 0 0 5.312v3.844a3 3 0 0 1-3 3H171.13a3 3 0 0 1-3-3v-3.995a2.77 2.77 0 1 0 0-5.009v-4.391Z" fill="hsl(217, 33%, 17%)"/><path fill-rule="evenodd" clip-rule="evenodd" d="M160.403 157.439a3.001 3.001 0 0 1 2.997-3.003l29.624-.033a3 3 0 0 1 3.003 2.997l.005 4.24a2.77 2.77 0 0 0-3.559 2.66 2.77 2.77 0 0 0 3.565 2.652l.004 3.843a3 3 0 0 1-2.996 3.004l-29.624.032a3 3 0 0 1-3.004-2.996l-.004-3.996a2.77 2.77 0 0 0 3.955-2.508 2.77 2.77 0 0 0-3.961-2.5l-.005-4.392Z" fill="hsl(217, 91%, 60%)"/><path d="M170.176 165.665a1.616 1.616 0 1 1-.003-3.232l9.697-.011a1.616 1.616 0 1 1 .004 3.232l-9.698.011Z" fill="hsl(217, 33%, 17%)"/><path fill-rule="evenodd" clip-rule="evenodd" d="M187.443 156.318a1.2 1.2 0 0 1 1.2 1.2v.036a1.2 1.2 0 1 1-2.4 0v-.036a1.2 1.2 0 0 1 1.2-1.2Zm0 6.563a1.2 1.2 0 0 1 1.2 1.2v.073a1.2 1.2 0 1 1-2.4 0v-.073c0-.662.538-1.2 1.2-1.2Zm0 6.6a1.2 1.2 0 0 1 1.2 1.2v.037a1.2 1.2 0 0 1-2.4 0v-.037c0-.662.538-1.2 1.2-1.2Z" fill="hsl(217, 33%, 17%)"/><circle cx="320" cy="435" r="29.5" fill="hsl(214, 20%, 34%)"/><path d="M305 424.2a1.8 1.8 0 0 1 1.8-1.8h27a1.8 1.8 0 0 1 1.8 1.8v21.6a1.8 1.8 0 0 1-1.8 1.8h-27a1.8 1.8 0 0 1-1.8-1.8v-21.6Z" fill="hsl(217, 91%, 60%)"/><path d="M325.328 433.33a.9.9 0 0 1 0 1.54l-8.762 5.303a.9.9 0 0 1-1.366-.77v-10.606a.9.9 0 0 1 1.366-.77l8.762 5.303Z" fill="hsl(217, 33%, 17%)"/><circle cx="434" cy="550" r="29.5" fill="hsl(214, 20%, 34%)"/><path d="M413 544a1.8 1.8 0 0 1 1.8-1.8h39a1.8 1.8 0 0 1 1.8 1.8v12.6a1.8 1.8 0 0 1-1.8 1.8h-39a1.8 1.8 0 0 1-1.8-1.8V544Z" fill="hsl(217, 91%, 60%)"/><path d="M441.186 550.37a2.4 2.4 0 1 1-4.801-.001 2.4 2.4 0 0 1 4.801.001Zm-25.3 0a2.4 2.4 0 0 1 2.4-2.4h13.11a2.4 2.4 0 1 1 0 4.8h-13.11a2.4 2.4 0 0 1-2.4-2.4Zm27.859 0a2.4 2.4 0 0 1 2.4-2.4h4.155a2.4 2.4 0 1 1 0 4.8h-4.155a2.4 2.4 0 0 1-2.4-2.4Z" fill="hsl(217, 33%, 17%)"/><circle cx="509" cy="290" r="29.5" fill="hsl(214, 20%, 34%)"/><path d="M500 278a1.8 1.8 0 0 1 1.8-1.8H521a1.8 1.8 0 0 1 1.8 1.8v28.8a1.8 1.8 0 0 1-1.8 1.8h-19.2a1.8 1.8 0 0 1-1.8-1.8V278Z" fill="hsl(217, 33%, 17%)"/><path d="M495.2 273.2a1.8 1.8 0 0 1 1.8-1.8h19.2a1.8 1.8 0 0 1 1.8 1.8V302a1.8 1.8 0 0 1-1.8 1.8H497a1.8 1.8 0 0 1-1.8-1.8v-28.8Z" fill="hsl(217, 91%, 60%)"/><path d="M498.2 275.6a1.2 1.2 0 0 1 1.2-1.2h14.4a1.2 1.2 0 0 1 1.2 1.2v15.6a1.2 1.2 0 0 1-1.2 1.2h-14.4a1.2 1.2 0 0 1-1.2-1.2v-15.6Zm0 21.9c0-1.16.94-2.1 2.1-2.1h6a2.1 2.1 0 1 1 0 4.2h-6a2.1 2.1 0 0 1-2.1-2.1Z" fill="hsl(217, 33%, 17%)"/><circle cx="320" cy="105" r="29.5" fill="hsl(214, 20%, 34%)"/><path d="M337.82 104.91c0 9.891-8.018 17.91-17.91 17.91-9.891 0-17.91-8.019-17.91-17.91S310.019 87 319.91 87c9.892 0 17.91 8.019 17.91 17.91Z" fill="hsl(217, 91%, 60%)"/><path d="M337.82 104.91c0 9.891-8.018 17.91-17.91 17.91-9.891 0-17.91-8.019-17.91-17.91S310.019 87 319.91 87c9.892 0 17.91 8.019 17.91 17.91Z" fill="url(#paint2_linear)"/><path d="M337.82 104.91c0 9.891-8.018 17.91-17.91 17.91-9.891 0-17.91-8.019-17.91-17.91S310.019 87 319.91 87c9.892 0 17.91 8.019 17.91 17.91Z" fill="hsl(217, 91%, 60%)"/><path d="M337.82 104.91c0 9.891-8.018 17.91-17.91 17.91-9.891 0-17.91-8.019-17.91-17.91S310.019 87 319.91 87c9.892 0 17.91 8.019 17.91 17.91Z" fill="url(#paint3_linear)"/><path d="M337.82 104.91c0 9.891-8.018 17.91-17.91 17.91-9.891 0-17.91-8.019-17.91-17.91S310.019 87 319.91 87c9.892 0 17.91 8.019 17.91 17.91Z" fill="hsl(217, 91%, 60%)"/><path d="M318.969 98.52a1.801 1.801 0 0 1 2.062 0l2.439 1.704 2.375 1.793c.602.456.857 1.238.637 1.961l-.867 2.846-.972 2.813a1.8 1.8 0 0 1-1.668 1.211l-2.975.056-2.975-.056a1.8 1.8 0 0 1-1.668-1.211l-.972-2.813-.866-2.846a1.801 1.801 0 0 1 .636-1.961l2.375-1.793 2.439-1.704Z" fill="hsl(217, 33%, 17%)"/><path fill-rule="evenodd" clip-rule="evenodd" d="M318.97 94.08a1.8 1.8 0 0 0 2.061 0l2.439-1.704 2.375-1.793a1.8 1.8 0 0 0 .637-1.96l-.131-.43A17.866 17.866 0 0 0 319.91 87c-2.193 0-4.295.394-6.237 1.116l-.154.506a1.8 1.8 0 0 0 .637 1.96l2.374 1.794 2.44 1.704Zm11.021 6.841a1.8 1.8 0 0 0 .593 1.974l2.334 1.846 2.401 1.757a1.8 1.8 0 0 0 2.061.046l.374-.249a17.868 17.868 0 0 0-.712-6.511c-.631-2.101-1.614-4-2.864-5.653l-.529-.001a1.8 1.8 0 0 0-1.694 1.174l-1.035 2.79-.929 2.827Zm-20.226 0a1.8 1.8 0 0 1-.593 1.974l-2.334 1.846-2.401 1.757a1.8 1.8 0 0 1-2.061.046l-.373-.249a17.867 17.867 0 0 1 .711-6.511c.632-2.101 1.614-4 2.864-5.653l.53-.001a1.8 1.8 0 0 1 1.694 1.174l1.034 2.79.929 2.827Zm3.217 12.337a1.8 1.8 0 0 1 1.689 1.181l1.024 2.794.919 2.83a1.799 1.799 0 0 1-.6 1.972l-.353.277a17.869 17.869 0 0 1-5.963-2.711 17.872 17.872 0 0 1-4.474-4.487l.164-.504a1.799 1.799 0 0 1 1.644-1.242l2.974-.11h2.976Zm13.851-.025a1.8 1.8 0 0 0-1.69 1.18l-1.024 2.794-.919 2.83a1.8 1.8 0 0 0 .601 1.972l.353.277a17.858 17.858 0 0 0 5.963-2.711 17.872 17.872 0 0 0 4.474-4.487l-.164-.503a1.8 1.8 0 0 0-1.645-1.243l-2.974-.11-2.975.001Z" fill="hsl(217, 33%, 17%)"/></svg>