<svg width="36" height="39" fill="none" xmlns="http://www.w3.org/2000/svg"><path d="M33.172 9.004 17.592.345 2.014 9.005l9.91 5.492a7.85 7.85 0 0 1 5.67-2.424 7.85 7.85 0 0 1 5.668 2.424l9.91-5.493ZM13.683 19.892a3.92 3.92 0 0 1 3.91-3.91c2.15 0 3.91 1.76 3.91 3.91 0 2.15-1.76 3.91-3.91 3.91a3.92 3.92 0 0 1-3.91-3.91Zm1.955 18.453L0 29.666V12.347l10.028 5.571a7.291 7.291 0 0 0-.254 1.974 7.802 7.802 0 0 0 5.864 7.565v10.888Zm3.91 0V27.457a7.803 7.803 0 0 0 5.864-7.565 7.29 7.29 0 0 0-.255-1.974l10.028-5.571v17.319l-15.638 8.679Z" fill="url(#a)"/><defs><linearGradient id="a" x1="0" y1="19.345" x2="35.185" y2="19.345" gradientUnits="userSpaceOnUse"><stop stop-color="#4776E6"/><stop offset="1" stop-color="#8E54E9"/></linearGradient></defs></svg>