<svg width="36" height="39" fill="none" xmlns="http://www.w3.org/2000/svg"><path d="M33.172 8.681 17.592.022 2.014 8.682l9.91 5.492a7.85 7.85 0 0 1 5.67-2.424 7.85 7.85 0 0 1 5.668 2.424l9.91-5.493ZM13.683 19.57c0-2.15 1.76-3.91 3.91-3.91 2.15 0 3.91 1.76 3.91 3.91 0 2.15-1.76 3.91-3.91 3.91-2.15 0-3.91-1.76-3.91-3.91Zm1.955 18.453L0 29.343V12.024l10.028 5.571a7.29 7.29 0 0 0-.254 1.974 7.802 7.802 0 0 0 5.864 7.565v10.888Zm3.91 0V27.134a7.802 7.802 0 0 0 5.864-7.565 7.29 7.29 0 0 0-.255-1.974l10.028-5.571v17.319l-15.638 8.679Z" fill="#3B82F6"/></svg>