<svg version="1.0" xmlns="http://www.w3.org/2000/svg" width="832" height="832" viewBox="0 0 624 624"><path d="M298.5 9.3c-3.3 1.7-6.2 3.4-6.5 3.7-.3.3-2.3 1.4-4.5 2.6-2.2 1.2-6.1 3.3-8.7 4.7-2.7 1.5-6.8 3.8-9.3 5.2-4.9 2.7-11.7 6.5-18 10.2-2.2 1.2-4.7 2.6-5.5 2.9-.8.4-4.4 2.4-8 4.4-3.6 2.1-9.2 5.2-12.5 7-3.3 1.8-8.1 4.5-10.6 5.9-14 7.8-24.7 13.7-26.9 14.8-1.4.7-3.2 1.7-4 2.3-.8.5-8.7 5-17.5 9.9-8.8 4.8-17.6 9.7-19.5 10.8-1.9 1.1-7.5 4.1-12.5 6.8-4.9 2.7-9.1 5.2-9.3 5.7-.2.4-.8.8-1.4.8-.8 0-12.5 6.4-41.3 22.5-2.7 1.5-7.2 4-10 5.5-13.5 7.4-15.5 8.5-15.5 9.1 0 .3 1.2 1.2 2.8 2 1.5.8 6.4 3.5 11 6.1 4.6 2.7 8.5 4.8 8.7 4.8.2 0 2.6 1.3 5.2 2.8 2.6 1.6 8 4.6 11.8 6.6 12.7 6.9 17.9 9.8 25.5 14.1 4.1 2.3 9.5 5.3 12 6.7 2.5 1.3 17.6 9.7 33.6 18.6 16 8.9 29.6 16.2 30.2 16.2.6 0 1.2.4 1.4.8.2.5 3.7 2.7 7.9 4.9l7.6 4.1 3.5-3.1c8.9-8.1 10.8-9.6 18-14.4 12.5-8.3 30.9-16.2 41.8-17.9 1.9-.3 3.8-.8 4.2-1 1.6-1 13.3-1.8 24.8-1.8 13.1.1 16.4.5 26.9 3 3.6.9 7.4 1.8 8.5 2 1.2.2 3 .8 4.1 1.3 1.1.6 4.9 2.2 8.5 3.7 13.2 5.3 25.2 13.3 37.2 24.6l4 3.6 4.6-2.4c2.6-1.4 7-3.8 9.7-5.4 2.8-1.6 6.1-3.4 7.4-4 1.3-.6 3.7-2 5.2-3.1 1.6-1.1 2.9-1.7 2.9-1.3 0 .4.8 0 1.8-.8.9-.9 4.6-3.1 8.1-4.9 3.5-1.9 7.1-3.9 8-4.4.9-.6 4.3-2.5 7.6-4.3 3.3-1.7 9.6-5.2 14-7.7 4.4-2.6 9.4-5.3 11-6.1 1.7-.8 6.2-3.2 10-5.4 3.9-2.2 11.7-6.6 17.5-9.7 5.8-3.1 10.7-5.9 11-6.2.3-.3 2.1-1.4 4-2.3 1.9-1 5.3-2.8 7.6-4.1 2.2-1.2 9.3-5.1 15.7-8.7 6.4-3.5 11.7-6.7 11.7-7 0-.6-35.6-20.4-37.6-20.8-.8-.2-1.4-.8-1.4-1.3s-.7-.9-1.5-.9-1.5-.5-1.5-1.2c0-.6-.3-.9-.6-.6-.3.4-4.9-1.8-10.1-4.8-5.3-3-9.9-5.4-10.4-5.4s-.9-.5-.9-1c0-.6-.5-1-1.1-1-.9 0-21.4-11.1-25.9-14-.8-.5-3.1-1.8-5-2.8-3.6-1.9-9.9-5.3-23-12.7-8.6-4.8-14.8-8.2-24-13.3-3.6-2-8.7-4.8-11.3-6.4-2.6-1.5-4.9-2.8-5.1-2.8-.1 0-6.7-3.6-14.5-8-7.9-4.4-14.7-8-15.2-8s-.9-.3-.9-.8c0-.4-2-1.6-4.5-2.7s-4.5-2.3-4.5-2.7c0-.5-.5-.8-1-.8-.6 0-6.5-3.1-13.3-6.9-6.7-3.7-15.1-8.4-18.8-10.4-3.6-2-8.5-4.7-11-6.1-2.4-1.4-4.8-2.6-5.4-2.6-.5 0-3.7 1.5-7 3.3zM24 336.3v138.3l3.8 2.1c2 1.2 5.5 3.1 7.7 4.3 2.2 1.3 6.7 3.7 10 5.5 3.3 1.8 10.4 5.8 15.9 8.9 5.4 3.1 10 5.6 10.2 5.6.3 0 2.1 1 4.2 2.3 2 1.3 7.8 4.5 12.7 7.2 12.5 6.7 12.9 6.9 13.5 7.5.3.3 2.3 1.4 4.5 2.6 5.3 2.8 12 6.5 29 15.9 7.7 4.3 15.8 8.8 18 10 2.2 1.2 7.8 4.4 12.5 7 4.7 2.7 10.5 5.9 13 7.2 2.5 1.3 6.3 3.4 8.5 4.6 2.2 1.3 6.5 3.7 9.5 5.3 3 1.7 9.8 5.5 15 8.4 5.2 2.9 12 6.6 15 8.3 5.9 3.2 8.1 4.5 17.5 9.7 3.3 1.9 7.6 4.2 9.5 5.2 1.9 1 4.9 2.7 6.5 3.7 5.9 3.5 12.6 7.1 13.3 7.1.4 0 .6-39 .6-86.7l-.1-86.6-9.4-3.3c-15.2-5.3-31.4-14.5-40.8-23.3-1.9-1.7-3.9-3.5-4.5-3.9-1.3-.8-8.9-9.2-12.9-14.2-4.4-5.5-11.7-17-11.7-18.5 0-.7-.4-1.5-.8-1.7-.7-.3-7.3-15.2-7.6-17.3-.1-.6-.5-1.6-.9-2.3-.5-.6-.6-1.2-.3-1.2s.1-1.2-.5-2.8c-.6-1.5-1.2-3.8-1.4-5.2-.2-1.4-.9-5.2-1.5-8.5-1.4-7.2-1.9-24.6-.9-32.9.7-5.9.9-7.1 2.4-14.7.6-3.4.5-3.6-4.2-6.1-2.6-1.4-12.1-6.6-21.1-11.7-8.9-5-16.7-9.1-17.2-9.1-.6 0-1-.5-1-1 0-.6-.5-1-1-1-.9 0-11.3-5.6-22-11.8-1.9-1.2-6-3.4-9-5s-19-10.5-35.5-19.7-32.9-18.3-36.4-20.2c-3.5-1.8-7.3-4-8.4-4.8-1.2-.8-2.5-1.5-2.9-1.5-.5 0-.8 62.2-.8 138.3zM571.5 206c-7.7 4.3-14.6 8.3-15.2 8.9-.7.7-1.3 1-1.3.7 0-.2-4.3 2-9.6 5s-10 5.4-10.5 5.4-.9.4-.9.9-.6 1.1-1.4 1.3c-.7.2-24.8 13.3-53.6 29.3l-52.2 29 .6 3c.3 1.6.7 4.1 1 5.5 1.3 5.7 2 15.1 1.9 25-.2 26.7-9.5 53.5-26.2 75.4-2.9 3.9-20.8 21.1-24.5 23.6-2 1.4-4.6 3.3-5.8 4.2-1.1 1-2.5 1.8-2.9 1.8-.5 0-2.5 1.1-4.5 2.5s-4 2.2-4.5 1.9c-.5-.3-.9-.1-.9.5 0 .5-2.1 1.7-4.8 2.7-2.6 1-5.3 2.2-5.9 2.7-.7.5-1.3.6-1.3.2 0-.4-.6-.3-1.2.2-.7.6-3.4 1.6-6 2.3-3.2.8-4.8 1.8-4.9 2.9-.3 7.2.1 171.4.4 171.8.5.5 4.1-1.3 6.7-3.4.8-.6 2-1.2 2.5-1.3.6-.1 3.9-1.9 7.5-4s8.9-5 11.8-6.6c6.3-3.4 12.3-6.8 21.2-11.8 3.6-2 8.1-4.4 10-5.4 1.9-.9 3.7-2 4-2.3.3-.4 2.1-1.5 4.1-2.5 2-1.1 5.6-3 8-4.4 2.4-1.3 4.6-2.4 4.9-2.5.3 0 3.4-1.8 7-3.9 3.6-2.1 10.8-6.1 16-8.9 5.2-2.8 9.7-5.3 10-5.6.3-.3 2.5-1.7 5-2.9 7.4-3.9 18.8-10.1 30.7-16.9 6.2-3.5 11.7-6.3 12.3-6.3.5 0 1-.5 1-1 0-.6.4-1 .9-1s5.7-2.7 11.6-6c5.9-3.3 10.9-6 11-6 .2 0 3.8-2.1 8.1-4.6 4.3-2.5 8.7-5 9.8-5.5 1.2-.5 5.3-2.7 9.1-5 3.9-2.2 7.8-4.3 8.8-4.6.9-.3 1.7-.9 1.7-1.4 0-.5.6-.9 1.3-.9.7 0 2.4-.8 3.7-1.7 1.4-1 3.1-1.8 3.9-2 .8-.1 1.7-.6 2-1.1.3-.5 1.1-1.1 1.6-1.3.6-.2 3.8-1.9 7.3-3.8l6.2-3.4V336.4c0-76.1-.3-138.4-.7-138.3-.5 0-7.1 3.6-14.8 7.9zm-269.8 49.6c-.1.2-2.3.5-4.9.8-2.5.3-5.8 1-7.2 1.6-1.4.5-2.6.7-2.6.4 0-.4-.6-.1-1.3.5-.8.6-2.2 1.2-3.3 1.4-3.1.5-12.8 6.5-17.8 10.8-9.9 8.8-17.8 22-20.3 33.9-.3 1.4-.7 6.5-.9 11.5-.7 18.2 5.9 34.3 19.3 47.1 3 2.8 6.9 6 8.8 7 1.9 1 3.5 2.2 3.5 2.6 0 .5.7.8 1.5.8s3.1.9 5.2 1.9c9.4 4.8 28.3 6.1 39.8 2.8 20.7-5.9 37.2-21.7 43.8-42 2.6-8.1 3.1-24.4 1-32.4-4.5-17.4-14.2-30.6-28.8-39.5-9.4-5.7-18.5-8.3-31.8-9.2-2.1-.1-3.9-.1-4 0z"/></svg>