<svg width="17" height="14" viewBox="0 0 17 14" fill="none" xmlns="http://www.w3.org/2000/svg">
<path d="M1.25 7.99939H13.11L9.48 12.3594C9.39595 12.4605 9.33265 12.5772 9.2937 12.7028C9.25474 12.8284 9.24091 12.9604 9.25298 13.0913C9.27736 13.3557 9.40578 13.5997 9.61 13.7694C9.81422 13.9391 10.0775 14.0208 10.3419 13.9964C10.6063 13.972 10.8503 13.8436 11.02 13.6394L16.02 7.63939C16.0536 7.59167 16.0837 7.54153 16.11 7.48939C16.11 7.43939 16.16 7.40939 16.18 7.35939C16.2253 7.24473 16.2491 7.12268 16.25 6.99939C16.2491 6.8761 16.2253 6.75405 16.18 6.63939C16.18 6.58939 16.13 6.55939 16.11 6.50939C16.0837 6.45725 16.0536 6.40712 16.02 6.35939L11.02 0.359392C10.926 0.246509 10.8082 0.155729 10.6752 0.0935078C10.5421 0.0312867 10.3969 -0.000847023 10.25 -0.000608441C10.0163 -0.00106495 9.78991 0.0803104 9.61 0.229392C9.50874 0.313341 9.42504 0.416441 9.36369 0.532788C9.30234 0.649135 9.26454 0.776443 9.25246 0.90742C9.24039 1.0384 9.25427 1.17047 9.29331 1.29607C9.33236 1.42168 9.3958 1.53834 9.48 1.63939L13.11 5.99939H1.25C0.984784 5.99939 0.73043 6.10475 0.542893 6.29228C0.355357 6.47982 0.25 6.73418 0.25 6.99939C0.25 7.26461 0.355357 7.51896 0.542893 7.7065C0.73043 7.89403 0.984784 7.99939 1.25 7.99939Z" fill="white"/>
</svg>
