<svg width="20" height="20" viewBox="0 0 20 20" fill="none" xmlns="http://www.w3.org/2000/svg">
<path fill-rule="evenodd" clip-rule="evenodd" d="M1.44569 4.3567C1.44569 2.73779 2.77674 1.42541 4.41869 1.42541C6.06063 1.42541 7.39169 2.73779 7.39169 4.3567C7.39169 5.97561 6.06063 7.288 4.41869 7.288C2.77674 7.288 1.44569 5.97561 1.44569 4.3567ZM4.41869 0C1.97832 0 0 1.95056 0 4.3567C0 6.76285 1.97832 8.71341 4.41869 8.71341C6.85907 8.71341 8.83738 6.76285 8.83738 4.3567C8.83738 1.95056 6.85907 0 4.41869 0ZM7.34272 15.4435L2.00914 18.3526V12.5344L7.34272 15.4435ZM2.23218 11.027C1.48275 10.6183 0.56345 11.1527 0.56345 11.9971V18.8898C0.56345 19.7343 1.48275 20.2686 2.23218 19.8599L8.55069 16.4135C9.3242 15.9916 9.3242 14.8953 8.55069 14.4734L2.23218 11.027ZM11.3259 12.2758C11.3259 11.6635 11.8293 11.1671 12.4503 11.1671H18.8756C19.4966 11.1671 20 11.6635 20 12.2758V18.6109C20 19.2232 19.4966 19.7195 18.8756 19.7195H12.4503C11.8293 19.7195 11.3259 19.2232 11.3259 18.6109V12.2758ZM12.7716 12.5925V18.2941H18.5543V12.5925H12.7716ZM19.5875 1.49503C19.8697 1.2167 19.8697 0.765446 19.5875 0.48711C19.3053 0.208791 18.8476 0.208791 18.5652 0.48711L15.6629 3.34873L12.7606 0.487158C12.4784 0.208823 12.0207 0.208823 11.7384 0.487158C11.4561 0.765477 11.4561 1.21675 11.7384 1.49507L14.6407 4.35664L11.7384 7.21822C11.4561 7.49655 11.4561 7.94781 11.7384 8.22614C12.0207 8.50448 12.4784 8.50448 12.7606 8.22614L15.6629 5.36457L18.5652 8.22619C18.8476 8.50451 19.3053 8.50451 19.5875 8.22619C19.8697 7.94785 19.8697 7.49658 19.5875 7.21826L16.6852 4.35664L19.5875 1.49503Z" fill="white"/>
</svg>
