<svg width="30" height="30" viewBox="0 0 30 30" fill="none" xmlns="http://www.w3.org/2000/svg">
<circle cx="15" cy="15" r="15" fill="#E2E8F0"/>
<path d="M21.6613 11.6641C21.4441 11.1428 21.1309 10.6703 20.7392 10.2733C20.3472 9.875 19.8851 9.55851 19.3779 9.341C18.852 9.11456 18.288 8.99865 17.7185 9.00001C16.9195 9.00001 16.1401 9.22678 15.4627 9.65511C15.3006 9.75758 15.1467 9.87012 15.0008 9.99274C14.855 9.87012 14.701 9.75758 14.5389 9.65511C13.8616 9.22678 13.0821 9.00001 12.2831 9.00001C11.7078 9.00001 11.1504 9.11423 10.6237 9.341C10.1148 9.55937 9.65621 9.87348 9.26241 10.2733C8.87023 10.6699 8.55695 11.1424 8.34032 11.6641C8.11506 12.2067 8 12.7828 8 13.3758C8 13.9351 8.1102 14.518 8.32897 15.1109C8.5121 15.6065 8.77463 16.1205 9.11008 16.6395C9.64162 17.4609 10.3725 18.3176 11.28 19.186C12.7839 20.6255 14.2732 21.62 14.3364 21.6603L14.7204 21.9156C14.8906 22.0281 15.1094 22.0281 15.2795 21.9156L15.6636 21.6603C15.7268 21.6183 17.2145 20.6255 18.72 19.186C19.6275 18.3176 20.3584 17.4609 20.8899 16.6395C21.2254 16.1205 21.4895 15.6065 21.671 15.1109C21.8898 14.518 22 13.9351 22 13.3758C22.0016 12.7828 21.8865 12.2067 21.6613 11.6641ZM15.0008 20.5869C15.0008 20.5869 9.23162 16.7554 9.23162 13.3758C9.23162 11.6641 10.5978 10.2766 12.2831 10.2766C13.4678 10.2766 14.4952 10.962 15.0008 11.9631C15.5064 10.962 16.5338 10.2766 17.7185 10.2766C19.4039 10.2766 20.77 11.6641 20.77 13.3758C20.77 16.7554 15.0008 20.5869 15.0008 20.5869Z" fill="url(#paint0_linear_1541_13634)"/>
<defs>
<linearGradient id="paint0_linear_1541_13634" x1="8" y1="15.5" x2="22" y2="15.5" gradientUnits="userSpaceOnUse">
<stop stop-color="#4776E6"/>
<stop offset="1" stop-color="#8E54E9"/>
</linearGradient>
</defs>
</svg>
