<svg xmlns="http://www.w3.org/2000/svg" width="32" height="32" viewBox="0 0 32 32"><g transform="translate(0 -1020.362)"><circle cx="16" cy="1036.362" r="16" fill="#424242" fill-rule="evenodd"/><path fill="#1f212a" style="line-height:normal;text-indent:0;text-align:start;text-decoration-line:none;text-decoration-style:solid;text-decoration-color:#000;text-transform:none;block-progression:tb;isolation:auto;mix-blend-mode:normal" d="M 18.757812 31.757812 A 16 16 0 0 0 20.279297 31.416016 A 16 16 0 0 0 21.796875 30.912109 A 16 16 0 0 0 23.257812 30.259766 A 16 16 0 0 0 24.644531 29.462891 A 16 16 0 0 0 25.945312 28.533203 A 16 16 0 0 0 27.146484 27.478516 A 16 16 0 0 0 28.238281 26.306641 A 16 16 0 0 0 29.205078 25.035156 A 16 16 0 0 0 30.041016 23.669922 A 16 16 0 0 0 30.648438 22.410156 L 18.119141 9.8808594 C 17.575615 9.3373594 16.825872 9 16 9 C 14.348236 9 13.000013 10.3483 13 12 C 13.000007 12.8259 13.337334 13.575641 13.880859 14.119141 L 15.771484 16.009766 C 12.047426 16.11306 9 18.703665 9 22 L 18.757812 31.757812 z " color="#000" font-family="sans-serif" font-weight="400" transform="translate(0 1020.362)"/><path fill="#fff" style="line-height:normal;text-indent:0;text-align:start;text-decoration-line:none;text-decoration-style:solid;text-decoration-color:#000;text-transform:none;block-progression:tb;isolation:auto;mix-blend-mode:normal" d="M 8,2 C 6.3482363,2 5.0000136,3.3483 5,5 5.0000136,6.6518 6.3482363,8 8,8 9.6517636,8 10.999986,6.6518 11,5 10.999986,3.3483 9.6517636,2 8,2 Z M 8,2.8574219 C 9.1885331,2.8574219 10.142568,3.8115 10.142578,5 10.142568,6.1886 9.1885331,7.1445312 8,7.1445312 6.8114669,7.1445312 5.8574316,6.1886 5.8574219,5 5.8574316,3.8115 6.8114669,2.8573219 8,2.8574219 Z M 8,9 C 4.17193,9 1,11.6359 1,15 l 1,0 c 0,-2.7298 2.62607,-5 6,-5 3.37393,0 6,2.2702 6,5 l 1,0 C 15,11.6359 11.82807,9 8,9 Z" color="#000" font-family="sans-serif" font-weight="400" overflow="visible" transform="translate(8 1027.362)"/></g></svg>