<svg width="31" height="30" viewBox="0 0 31 30" fill="none" xmlns="http://www.w3.org/2000/svg">
<rect x="0.441406" width="30" height="30" rx="15" fill="#334155"/>
<path d="M20.639 9.38258C20.8996 9.13448 21.2464 8.99732 21.6062 9.00004C21.966 9.00276 22.3107 9.14516 22.5675 9.39718C22.8244 9.6492 22.9732 9.99113 22.9827 10.3508C22.9922 10.7105 22.8616 11.0598 22.6185 11.3251L15.237 20.5565C15.1101 20.6933 14.9569 20.803 14.7866 20.8791C14.6163 20.9553 14.4324 20.9963 14.2459 20.9998C14.0594 21.0032 13.8741 20.969 13.7011 20.8992C13.5281 20.8294 13.3709 20.7255 13.239 20.5935L8.34395 15.6985C8.20763 15.5714 8.09829 15.4183 8.02246 15.2481C7.94662 15.0779 7.90585 14.8941 7.90256 14.7078C7.89927 14.5215 7.93354 14.3365 8.00333 14.1637C8.07311 13.9909 8.17698 13.834 8.30873 13.7022C8.44049 13.5705 8.59743 13.4666 8.7702 13.3968C8.94296 13.3271 9.12802 13.2928 9.31432 13.2961C9.50062 13.2994 9.68435 13.3401 9.85454 13.416C10.0247 13.4918 10.1779 13.6011 10.3049 13.7375L14.1788 17.6095L20.6039 9.42328C20.6154 9.40904 20.6259 9.39545 20.639 9.38258Z" fill="#4974E6"/>
</svg>
