<svg width="19" height="19" viewBox="0 0 19 19" fill="none" xmlns="http://www.w3.org/2000/svg">
<path d="M1.12439 3.34497C1.12439 2.81454 1.3351 2.30583 1.71018 1.93076C2.08525 1.55568 2.59396 1.34497 3.12439 1.34497H13.1244C13.3896 1.34497 13.644 1.45033 13.8315 1.63786C14.019 1.8254 14.1244 2.07975 14.1244 2.34497V5.34497L16.1244 9.34497V6.34497C16.1244 6.07975 16.019 5.8254 15.8315 5.63786C15.644 5.45033 15.3896 5.34497 15.1244 5.34497H3.12439C2.59396 5.34497 2.08525 5.13426 1.71018 4.75918C1.3351 4.38411 1.12439 3.8754 1.12439 3.34497ZM1.12439 3.34497V15.345C1.12439 15.8754 1.3351 16.3841 1.71018 16.7592C2.08525 17.1343 2.59396 17.345 3.12439 17.345H15.1244C15.3896 17.345 15.644 17.2396 15.8315 17.0521C16.019 16.8645 16.1244 16.6102 16.1244 16.345V13.345M17.1244 9.34497V13.345H13.1244C12.594 13.345 12.0852 13.1343 11.7102 12.7592C11.3351 12.3841 11.1244 11.8754 11.1244 11.345C11.1244 10.8145 11.3351 10.3058 11.7102 9.93076C12.0852 9.55568 12.594 9.34497 13.1244 9.34497H17.1244Z" stroke="#F8FAFC" stroke-width="2" stroke-linecap="round" stroke-linejoin="round"/>
</svg>
