<svg xmlns="http://www.w3.org/2000/svg" width="36" height="39" fill="none" viewBox="0 0 36 39"><path fill="url(#paint0_linear_2_1897)" d="M33.1718 9.00443L17.5926 0.344971L2.01341 9.00443L11.9239 14.4972C13.3509 13.0116 15.3642 12.0734 17.5926 12.0734C19.821 12.0734 21.8344 13.0116 23.2613 14.4972L33.1718 9.00443ZM13.6832 19.8923C13.6832 17.7421 15.4424 15.9828 17.5926 15.9828C19.7428 15.9828 21.5021 17.7421 21.5021 19.8923C21.5021 22.0425 19.7428 23.8018 17.5926 23.8018C15.4424 23.8018 13.6832 22.0425 13.6832 19.8923ZM15.6379 38.345L3.05176e-05 29.666V12.347L10.0278 17.918C9.85188 18.5435 9.77369 19.2081 9.77369 19.8923C9.77369 23.5281 12.2562 26.597 15.6379 27.4571V38.345ZM19.5474 38.345V27.4571C22.929 26.597 25.4116 23.5281 25.4116 19.8923C25.4116 19.2081 25.3334 18.5435 25.1574 17.918L35.1852 12.347V29.666L19.5474 38.345Z"/><defs><linearGradient id="paint0_linear_2_1897" x1="0" x2="35.185" y1="19.345" y2="19.345" gradientUnits="userSpaceOnUse"><stop stop-color="#4776E6"/><stop offset="1" stop-color="#8E54E9"/></linearGradient></defs></svg>