<svg width="36" height="39" viewBox="0 0 36 39" fill="none" xmlns="http://www.w3.org/2000/svg">
	<path d="M33.1718 8.68144L17.5926 0.0219727L2.01337 8.68144L11.9239 14.1742C13.3508 12.6886 15.3642 11.7504 17.5926 11.7504C19.821 11.7504 21.8344 12.6886 23.2613 14.1742L33.1718 8.68144ZM13.6831 19.5693C13.6831 17.4191 15.4424 15.6598 17.5926 15.6598C19.7428 15.6598 21.5021 17.4191 21.5021 19.5693C21.5021 21.7195 19.7428 23.4788 17.5926 23.4788C15.4424 23.4788 13.6831 21.7195 13.6831 19.5693ZM15.6379 38.022L0 29.343V12.024L10.0278 17.595C9.85185 18.2205 9.77366 18.8851 9.77366 19.5693C9.77366 23.2051 12.2562 26.274 15.6379 27.1341V38.022ZM19.5473 38.022V27.1341C22.929 26.274 25.4115 23.2051 25.4115 19.5693C25.4115 18.8851 25.3333 18.2205 25.1574 17.595L35.1852 12.024V29.343L19.5473 38.022Z" fill="#3B82F6" />
</svg>