<svg xmlns="http://www.w3.org/2000/svg" width="832" height="832" preserveAspectRatio="xMidYMid meet" version="1.0" viewBox="0 0 624 624"><metadata>Created by potrace 1.14, written by Peter Selinger 2001-2017</metadata><g fill="#000" stroke="none"><path d="M2985 6147 c-33 -17 -62 -34 -65 -37 -3 -3 -23 -14 -45 -26 -22 -12 -61 -33 -87 -47 -27 -15 -68 -38 -93 -52 -49 -27 -117 -65 -180 -102 -22 -12 -47 -26 -55 -29 -8 -4 -44 -24 -80 -44 -36 -21 -92 -52 -125 -70 -33 -18 -81 -45 -106 -59 -140 -78 -247 -137 -269 -148 -14 -7 -32 -17 -40 -23 -8 -5 -87 -50 -175 -99 -88 -48 -176 -97 -195 -108 -19 -11 -75 -41 -125 -68 -49 -27 -91 -52 -93 -57 -2 -4 -8 -8 -14 -8 -8 0 -125 -64 -413 -225 -27 -15 -72 -40 -100 -55 -135 -74 -155 -85 -155 -91 0 -3 12 -12 28 -20 15 -8 64 -35 110 -61 46 -27 85 -48 87 -48 2 0 26 -13 52 -28 26 -16 80 -46 118 -66 127 -69 179 -98 255 -141 41 -23 95 -53 120 -67 25 -13 176 -97 336 -186 160 -89 296 -162 302 -162 6 0 12 -4 14 -8 2 -5 37 -27 79 -49 l76 -41 35 31 c89 81 108 96 180 144 125 83 309 162 418 179 19 3 38 8 42 10 16 10 133 18 248 18 131 -1 164 -5 269 -30 36 -9 74 -18 85 -20 12 -2 30 -8 41 -13 11 -6 49 -22 85 -37 132 -53 252 -133 372 -246 l40 -36 46 24 c26 14 70 38 97 54 28 16 61 34 74 40 13 6 37 20 52 31 16 11 29 17 29 13 0 -4 8 0 18 8 9 9 46 31 81 49 35 19 71 39 80 44 9 6 43 25 76 43 33 17 96 52 140 77 44 26 94 53 110 61 17 8 62 32 100 54 39 22 117 66 175 97 58 31 107 59 110 62 3 3 21 14 40 23 19 10 53 28 76 41 22 12 93 51 157 87 64 35 117 67 117 70 0 6 -356 204 -376 208 -8 2 -14 8 -14 13 0 5 -7 9 -15 9 -8 0 -15 5 -15 12 0 6 -3 9 -6 6 -3 -4 -49 18 -101 48 -53 30 -99 54 -104 54 -5 0 -9 5 -9 10 0 6 -5 10 -11 10 -9 0 -214 111 -259 140 -8 5 -31 18 -50 28 -36 19 -99 53 -230 127 -86 48 -148 82 -240 133 -36 20 -87 48 -113 64 -26 15 -49 28 -51 28 -1 0 -67 36 -145 80 -79 44 -147 80 -152 80 -5 0 -9 3 -9 8 0 4 -20 16 -45 27 -25 11 -45 23 -45 27 0 5 -5 8 -10 8 -6 0 -65 31 -133 69 -67 37 -151 84 -188 104 -36 20 -85 47 -110 61 -24 14 -48 26 -54 26 -5 0 -37 -15 -70 -33z" transform="translate(0.000000,624.000000) scale(0.100000,-0.100000)"/><path d="M240 2877 l0 -1383 38 -21 c20 -12 55 -31 77 -43 22 -13 67 -37 100 -55 33 -18 104 -58 159 -89 54 -31 100 -56 102 -56 3 0 21 -10 42 -23 20 -13 78 -45 127 -72 125 -67 129 -69 135 -75 3 -3 23 -14 45 -26 53 -28 120 -65 290 -159 77 -43 158 -88 180 -100 22 -12 78 -44 125 -70 47 -27 105 -59 130 -72 25 -13 63 -34 85 -46 22 -13 65 -37 95 -53 30 -17 98 -55 150 -84 52 -29 120 -66 150 -83 59 -32 81 -45 175 -97 33 -19 76 -42 95 -52 19 -10 49 -27 65 -37 59 -35 126 -71 133 -71 4 0 6 390 6 867 l-1 866 -94 33 c-152 53 -314 145 -408 233 -19 17 -39 35 -45 39 -13 8 -89 92 -129 142 -44 55 -117 170 -117 185 0 7 -4 15 -8 17 -7 3 -73 152 -76 173 -1 6 -5 16 -9 23 -5 6 -6 12 -3 12 3 0 1 12 -5 28 -6 15 -12 38 -14 52 -2 14 -9 52 -15 85 -14 72 -19 246 -9 329 7 59 9 71 24 147 6 34 5 36 -42 61 -26 14 -121 66 -211 117 -89 50 -167 91 -172 91 -6 0 -10 5 -10 10 0 6 -5 10 -10 10 -9 0 -113 56 -220 118 -19 12 -60 34 -90 50 -30 16 -190 105 -355 197 -165 92 -329 183 -364 202 -35 18 -73 40 -84 48 -12 8 -25 15 -29 15 -5 0 -8 -622 -8 -1383z" transform="translate(0.000000,624.000000) scale(0.100000,-0.100000)"/><path d="M5715 4180 c-77 -43 -146 -83 -152 -89 -7 -7 -13 -10 -13 -7 0 2 -43 -20 -96 -50 -53 -30 -100 -54 -105 -54 -5 0 -9 -4 -9 -9 0 -5 -6 -11 -14 -13 -7 -2 -248 -133 -536 -293 l-522 -290 6 -30 c3 -16 7 -41 10 -55 13 -57 20 -151 19 -250 -2 -267 -95 -535 -262 -754 -29 -39 -208 -211 -245 -236 -20 -14 -46 -33 -58 -42 -11 -10 -25 -18 -29 -18 -5 0 -25 -11 -45 -25 -20 -14 -40 -22 -45 -19 -5 3 -9 1 -9 -5 0 -5 -21 -17 -48 -27 -26 -10 -53 -22 -59 -27 -7 -5 -13 -6 -13 -2 0 4 -6 3 -12 -2 -7 -6 -34 -16 -60 -23 -32 -8 -48 -18 -49 -29 -3 -72 1 -1714 4 -1718 5 -5 41 13 67 34 8 6 20 12 25 13 6 1 39 19 75 40 36 21 89 50 118 66 63 34 123 68 212 118 36 20 81 44 100 54 19 9 37 20 40 23 3 4 21 15 41 25 20 11 56 30 80 44 24 13 46 24 49 25 3 0 34 18 70 39 36 21 108 61 160 89 52 28 97 53 100 56 3 3 25 17 50 29 74 39 188 101 307 169 62 35 117 63 123 63 5 0 10 5 10 10 0 6 4 10 9 10 5 0 57 27 116 60 59 33 109 60 110 60 2 0 38 21 81 46 43 25 87 50 98 55 12 5 53 27 91 50 39 22 78 43 88 46 9 3 17 9 17 14 0 5 6 9 13 9 7 0 24 8 37 17 14 10 31 18 39 20 8 1 17 6 20 11 3 5 11 11 16 13 6 2 38 19 73 38 l62 34 0 1383 c0 761 -3 1384 -7 1383 -5 0 -71 -36 -148 -79z" transform="translate(0.000000,624.000000) scale(0.100000,-0.100000)"/><path d="M3017 3684 c-1 -2 -23 -5 -49 -8 -25 -3 -58 -10 -72 -16 -14 -5 -26 -7 -26 -4 0 4 -6 1 -13 -5 -8 -6 -22 -12 -33 -14 -31 -5 -128 -65 -178 -108 -99 -88 -178 -220 -203 -339 -3 -14 -7 -65 -9 -115 -7 -182 59 -343 193 -471 30 -28 69 -60 88 -70 19 -10 35 -22 35 -26 0 -5 7 -8 15 -8 8 0 31 -9 52 -19 94 -48 283 -61 398 -28 207 59 372 217 438 420 26 81 31 244 10 324 -45 174 -142 306 -288 395 -94 57 -185 83 -318 92 -21 1 -39 1 -40 0z" transform="translate(0.000000,624.000000) scale(0.100000,-0.100000)"/></g></svg>