<svg xmlns="http://www.w3.org/2000/svg" width="502" height="398" fill="none" viewBox="0 0 502 398"><ellipse fill="hsl(217, 91%, 60%)" rx="2.758" ry="2.529" transform="matrix(4.37114e-08 1 1 -4.37114e-08 385.296 130.297)"/><ellipse fill="hsl(217, 91%, 60%)" rx="2.758" ry="2.758" transform="matrix(4.37114e-08 1 1 -4.37114e-08 300.934 323.846)"/><path stroke="hsl(217, 91%, 60%)" stroke-dasharray=".25 10" stroke-linecap="round" stroke-width="3" d="M385.129 130.297C448.571 130.297 500 181.857 500 245.461C500 309.064 448.571 360.625 385.129 360.625C352.111 360.625 322.347 346.659 301.393 324.298"/><ellipse fill="hsl(217, 91%, 60%)" rx=".947" ry=".868" transform="matrix(0.336946 -0.941524 -0.941524 -0.336946 81.3832 100.934)"/><ellipse fill="hsl(217, 91%, 60%)" rx=".947" ry=".947" transform="matrix(0.336946 -0.941524 -0.941524 -0.336946 131.054 48.118)"/><path stroke="hsl(217, 91%, 60%)" stroke-dasharray=".25 10" stroke-linecap="round" stroke-width="3" d="M81.4373 100.954C60.9257 93.6132 50.2636 70.9921 57.6229 50.4281C64.9822 29.8641 87.5761 19.1444 108.088 26.4849C118.763 30.3053 126.77 38.2646 130.958 47.9188"/><circle cx="80.921" cy="299.055" r="36.322" stroke="hsl(217, 91%, 60%)" stroke-width="3"/><circle cx="443.745" cy="64.649" r="14.272" stroke="hsl(217, 33%, 17%)" stroke-width="4"/><path fill="hsl(217, 91%, 60%)" d="M357.107 0C335.247 0 317.526 17.7209 317.526 39.5808H396.688C396.688 17.7209 378.967 0 357.107 0Z"/><path fill="hsl(217, 33%, 17%)" d="M24.6281 391.41C38.2297 391.41 49.2561 380.384 49.2561 366.782L-2.15305e-06 366.782C-9.63955e-07 380.384 11.0264 391.41 24.6281 391.41Z"/><rect width="77.403" height="49.116" x="196.145" y="271.891" fill="hsl(217, 33%, 17%)"/><path fill="hsl(214, 20%, 34%)" d="M196.02 321.254H273.46V321.254C273.46 330.61 265.875 338.194 256.52 338.194H212.96C203.604 338.194 196.02 330.61 196.02 321.254V321.254Z"/><path fill="hsl(217, 91%, 60%)" fill-rule="evenodd" d="M330.943 144.118C330.943 159.892 327.114 174.775 320.332 187.895H320.622C320.465 188.011 320.307 188.128 320.149 188.247C316.725 194.802 312.563 200.913 307.772 206.47L308.165 206.403C307.681 206.811 307.194 207.24 306.704 207.688C304.924 209.684 303.062 211.604 301.123 213.445C293.454 222.155 285.86 233.758 281.327 241.364C277.222 251.32 274.273 262.004 273.285 272.959H226.304V272.959H196.407C195.427 262.091 192.283 250.964 187.895 240.323C183.63 234.287 174.574 222.503 166.203 211.609L164.286 209.115C160.075 204.579 156.299 199.636 153.023 194.352L152.986 194.302L152.995 194.307C150.495 190.267 148.287 186.029 146.401 181.621C146.342 181.576 146.282 181.532 146.223 181.489L146.349 181.497C141.456 170.013 138.749 157.38 138.749 144.118C138.749 91.2413 181.773 48.3765 234.846 48.3765C287.919 48.3765 330.943 91.2413 330.943 144.118Z" clip-rule="evenodd"/><path fill="hsl(214, 20%, 34%)" d="M288.381 144.127C284.902 126.272 275.007 111.597 264.805 101.209C261.143 97.48 264.121 90.2675 269.169 91.6234C302.475 100.57 307.46 124.292 301.95 147.492C300.58 153.263 289.515 149.948 288.381 144.127Z"/><path fill="hsl(217, 33%, 17%)" d="M431.187 147.972C431.187 148.927 430.686 149.813 429.867 150.305L413.986 159.852C412.171 160.942 409.861 159.635 409.861 157.518V138.69C409.861 137.735 410.362 136.849 411.18 136.357L427.062 126.81C428.876 125.72 431.187 127.027 431.187 129.144V147.972Z"/><path fill="hsl(217, 33%, 17%)" d="M385.812 147.972C385.812 148.927 386.313 149.813 387.132 150.305L403.013 159.852C404.828 160.942 407.138 159.635 407.138 157.518V138.69C407.138 137.735 406.637 136.849 405.818 136.357L389.937 126.81C388.122 125.72 385.812 127.027 385.812 129.144V147.972Z"/><path fill="hsl(217, 91%, 60%)" d="M391.451 124.179C389.511 123.014 389.511 120.203 391.451 119.037L406.954 109.718C407.905 109.146 409.094 109.146 410.045 109.718L425.548 119.037C427.487 120.203 427.487 123.014 425.548 124.179L410.045 133.499C409.094 134.07 407.905 134.07 406.954 133.499L391.451 124.179Z"/><path fill="hsl(217, 91%, 60%)" d="M114.95 314.297H153.972V351.949C153.972 354.711 151.734 356.949 148.972 356.949H119.95C117.188 356.949 114.95 354.711 114.95 351.949V314.297Z"/><rect width="28.132" height="5.445" x="120.395" y="324.279" fill="hsl(217, 33%, 17%)" rx="2.722"/><rect width="28.132" height="5.445" x="120.395" y="334.262" fill="hsl(217, 33%, 17%)" rx="2.723"/><rect width="17.242" height="5.445" x="120.395" y="344.244" fill="hsl(217, 33%, 17%)" rx="2.723"/><path fill="hsl(217, 33%, 17%)" d="M114.95 313.852C114.95 311.09 117.188 308.852 119.95 308.852H148.972C151.734 308.852 153.972 311.09 153.972 313.852V318.834H114.95V313.852Z"/><path fill="hsl(217, 91%, 60%)" d="M123.117 313.843C123.117 315.096 122.102 316.112 120.849 316.112C119.596 316.112 118.58 315.096 118.58 313.843C118.58 312.59 119.596 311.574 120.849 311.574C122.102 311.574 123.117 312.59 123.117 313.843Z"/><path fill="hsl(217, 91%, 60%)" d="M130.377 313.843C130.377 315.096 129.362 316.112 128.109 316.112C126.856 316.112 125.84 315.096 125.84 313.843C125.84 312.59 126.856 311.574 128.109 311.574C129.362 311.574 130.377 312.59 130.377 313.843Z"/><path fill="hsl(217, 33%, 17%)" d="M272.177 384.551C272.177 389.021 255.354 392.644 234.601 392.644C213.848 392.644 197.024 389.021 197.024 384.551C197.024 380.081 213.848 376.457 234.601 376.457C255.354 376.457 272.177 380.081 272.177 384.551Z"/><rect width="77.403" height="8.796" x="196.145" y="284.102" fill="hsl(214, 20%, 34%)"/><rect width="77.403" height="8.796" x="196.145" y="302.573" fill="hsl(214, 20%, 34%)"/><path fill="hsl(217, 33%, 17%)" fill-rule="evenodd" d="M362.429 270.51C362.429 268.622 363.959 267.092 365.847 267.092H399.599C401.486 267.092 403.017 268.622 403.017 270.51V275.34C402.731 275.255 402.428 275.209 402.115 275.209C400.371 275.209 398.958 276.623 398.958 278.366C398.958 280.109 400.371 281.523 402.115 281.523C402.428 281.523 402.731 281.477 403.017 281.392V285.771C403.017 287.659 401.486 289.189 399.599 289.189H365.847C363.959 289.189 362.429 287.659 362.429 285.771V281.219C362.839 281.414 363.298 281.523 363.782 281.523C365.525 281.523 366.939 280.109 366.939 278.366C366.939 276.623 365.525 275.209 363.782 275.209C363.298 275.209 362.839 275.318 362.429 275.513V270.51Z" clip-rule="evenodd"/><path fill="hsl(217, 91%, 60%)" fill-rule="evenodd" d="M353.626 263.612C353.624 261.725 355.152 260.193 357.04 260.191L390.792 260.153C392.679 260.151 394.211 261.68 394.213 263.568L394.219 268.398C393.933 268.313 393.63 268.268 393.317 268.268C391.573 268.27 390.161 269.685 390.163 271.428C390.165 273.172 391.58 274.584 393.324 274.582C393.637 274.581 393.94 274.535 394.225 274.45L394.23 278.829C394.232 280.717 392.704 282.249 390.816 282.251L357.064 282.288C355.177 282.291 353.645 280.762 353.643 278.874L353.637 274.322C354.048 274.516 354.507 274.625 354.991 274.624C356.734 274.622 358.146 273.207 358.144 271.464C358.142 269.72 356.727 268.309 354.984 268.311C354.5 268.311 354.041 268.421 353.631 268.616L353.626 263.612Z" clip-rule="evenodd"/><path fill="hsl(217, 33%, 17%)" d="M364.76 272.985C363.743 272.986 362.918 272.162 362.917 271.145C362.915 270.128 363.739 269.303 364.756 269.302L375.805 269.289C376.822 269.288 377.647 270.112 377.648 271.129C377.65 272.146 376.826 272.971 375.809 272.972L364.76 272.985Z"/><path fill="hsl(217, 33%, 17%)" fill-rule="evenodd" d="M384.433 262.334C385.188 262.334 385.801 262.946 385.801 263.702L385.801 263.743C385.801 264.498 385.188 265.11 384.433 265.11C383.678 265.11 383.066 264.498 383.066 263.743L383.066 263.702C383.066 262.946 383.678 262.334 384.433 262.334ZM384.433 269.813C385.188 269.813 385.801 270.425 385.801 271.18L385.801 271.263C385.801 272.018 385.188 272.63 384.433 272.63C383.678 272.63 383.066 272.018 383.066 271.263L383.066 271.18C383.066 270.425 383.678 269.813 384.433 269.813ZM384.433 277.332C385.188 277.332 385.801 277.944 385.801 278.7L385.801 278.741C385.801 279.496 385.188 280.108 384.433 280.108C383.678 280.108 383.066 279.496 383.066 278.741L383.066 278.7C383.066 277.944 383.678 277.332 384.433 277.332Z" clip-rule="evenodd"/><path fill="hsl(217, 33%, 17%)" d="M55.0549 154.281C55.0549 152.941 56.3059 151.855 57.8491 151.855H87.6532C89.1964 151.855 90.4474 152.941 90.4474 154.281V193.106C90.4474 194.447 89.1964 195.533 87.6532 195.533H57.8491C56.3059 195.533 55.0549 194.447 55.0549 193.106V154.281Z"/><path fill="hsl(217, 91%, 60%)" d="M47.7949 147.021C47.7949 145.681 49.0459 144.595 50.5891 144.595H80.3932C81.9364 144.595 83.1874 145.681 83.1874 147.021V185.846C83.1874 187.187 81.9364 188.273 80.3932 188.273H50.5891C49.0459 188.273 47.7949 187.187 47.7949 185.846V147.021Z"/><path fill="hsl(217, 33%, 17%)" d="M52.4519 150.257C52.4519 149.363 53.2859 148.639 54.3147 148.639H76.6678C77.6966 148.639 78.5305 149.363 78.5305 150.257V171.287C78.5305 172.18 77.6966 172.905 76.6678 172.905H54.3147C53.2859 172.905 52.4519 172.18 52.4519 171.287V150.257Z"/><path fill="hsl(217, 33%, 17%)" d="M52.4519 179.78C52.4519 178.216 53.9114 176.949 55.7117 176.949H65.0255C66.8259 176.949 68.2854 178.216 68.2854 179.78C68.2854 181.343 66.8259 182.611 65.0255 182.611H55.7117C53.9114 182.611 52.4519 181.343 52.4519 179.78Z"/></svg>