<svg width="20" height="22" fill="none" xmlns="http://www.w3.org/2000/svg"><path d="M2.684 5.09 10 1.002l7.316 4.088-3.982 2.219a5.187 5.187 0 0 0-6.668 0L2.684 5.09Zm5.844 6.223c0-.819.668-1.484 1.472-1.484a1.485 1.485 0 0 1 0 2.968 1.485 1.485 0 0 1-1.472-1.484Zm-.39 4.87v4.397L.75 16.457V8.28l4.106 2.293a5.34 5.34 0 0 0-.05.74 5.21 5.21 0 0 0 3.333 4.87Zm11.112.274-7.389 4.123v-4.397a5.21 5.21 0 0 0 3.333-4.87c0-.247-.015-.495-.05-.741l4.106-2.293v8.178Z" stroke="#fff" stroke-width="1.5"/></svg>