<svg width="30" height="30" fill="none" xmlns="http://www.w3.org/2000/svg"><circle cx="15" cy="15" r="15" fill="#E2E8F0"/><path d="M24.456 14.41a2.363 2.363 0 0 0-.83.156l-2.835-2.32c.07-.253.12-.515.12-.792A2.947 2.947 0 0 0 17.956 8.5a2.947 2.947 0 0 0-2.954 2.954c0 .468.118.905.31 1.297l-3.438 4.063a2.434 2.434 0 0 0-.418-.041 2.32 2.32 0 0 0-.605.087l-3.029-3.029c.053-.192.089-.392.089-.604a2.358 2.358 0 0 0-2.364-2.363 2.358 2.358 0 0 0-2.363 2.363 2.358 2.358 0 0 0 2.363 2.364c.212 0 .412-.035.605-.087l3.03 3.028c-.057.197-.087.4-.09.604a2.358 2.358 0 0 0 2.364 2.364 2.358 2.358 0 0 0 2.364-2.364c0-.28-.057-.543-.145-.793l3.442-4.068c.268.079.546.134.84.134a2.93 2.93 0 0 0 1.338-.332l2.835 2.32c-.022.124-.034.25-.037.376a2.358 2.358 0 0 0 2.363 2.363 2.359 2.359 0 0 0 2.364-2.363 2.358 2.358 0 0 0-2.364-2.364Z" fill="#6366F1"/></svg>