<svg width="20" height="24" fill="none" xmlns="http://www.w3.org/2000/svg"><path fill-rule="evenodd" clip-rule="evenodd" d="M10.424.658a.833.833 0 0 0-.848 0L.41 6.074a.833.833 0 0 0 0 1.435l9.166 5.417a.833.833 0 0 0 .848 0l9.166-5.417a.833.833 0 0 0 0-1.435L10.424.658ZM10 11.24 2.472 6.792 10 2.343l7.529 4.449L10 11.24Zm-9.884.544a.833.833 0 0 1 1.141-.293L10 16.657l8.743-5.166a.833.833 0 0 1 .847 1.435l-9.166 5.416a.833.833 0 0 1-.848 0L.41 12.926a.833.833 0 0 1-.294-1.142Zm0 5a.833.833 0 0 1 1.141-.293L10 21.657l8.743-5.166a.833.833 0 0 1 .847 1.435l-9.166 5.416a.833.833 0 0 1-.848 0L.41 17.926a.833.833 0 0 1-.294-1.142Z" fill="#fff"/></svg>