<svg width="193" height="42" fill="none" xmlns="http://www.w3.org/2000/svg"><circle cx="21.5" cy="21" r="21" fill="#6366F1"/><path d="M22.833 22.2h1.905L25.5 19h-2.667v-1.6c0-.824 0-1.6 1.524-1.6H25.5v-2.688A20.45 20.45 0 0 0 23.323 13c-2.068 0-3.537 1.326-3.537 3.76V19H17.5v3.2h2.286V29h3.047v-6.8Z" fill="#F8FAFC"/><circle cx="71.5" cy="21" r="20.5" fill="#E2E8F0" stroke="#0F172A"/><path d="M81.5 14.898a8.323 8.323 0 0 1-2.356.635 4.06 4.06 0 0 0 1.804-2.234 8.271 8.271 0 0 1-2.606.98 4.126 4.126 0 0 0-2.328-1.225 4.162 4.162 0 0 0-2.605.424 4.066 4.066 0 0 0-1.803 1.898 3.98 3.98 0 0 0-.256 2.586 11.803 11.803 0 0 1-4.684-1.225 11.62 11.62 0 0 1-3.773-2.995 3.988 3.988 0 0 0-.071 3.936 4.063 4.063 0 0 0 1.34 1.456 4.144 4.144 0 0 1-1.858-.505v.052a4 4 0 0 0 .928 2.558 4.117 4.117 0 0 0 2.364 1.401 4.198 4.198 0 0 1-1.853.07 4.043 4.043 0 0 0 1.46 2.006 4.149 4.149 0 0 0 2.373.797 8.319 8.319 0 0 1-5.096 1.73c-.328 0-.655-.02-.98-.057A11.742 11.742 0 0 0 67.79 29c7.548 0 11.674-6.153 11.674-11.489 0-.173-.004-.348-.012-.521a8.268 8.268 0 0 0 2.046-2.09l.002-.002Z" fill="#0F172A"/><circle cx="121.5" cy="21" r="20.5" fill="#E2E8F0" stroke="#0F172A"/><path d="M121.498 16.895A4.099 4.099 0 0 0 117.393 21a4.099 4.099 0 0 0 4.105 4.105A4.1 4.1 0 0 0 125.603 21a4.1 4.1 0 0 0-4.105-4.105Zm0 6.773A2.674 2.674 0 0 1 118.83 21a2.674 2.674 0 0 1 2.668-2.668A2.674 2.674 0 0 1 124.166 21a2.674 2.674 0 0 1-2.668 2.668Zm4.273-7.897a.957.957 0 0 0-.959.958c0 .53.428.959.959.959a.956.956 0 0 0 .886-1.326.956.956 0 0 0-.886-.591ZM129.499 21c0-1.105.01-2.2-.052-3.302-.062-1.281-.354-2.418-1.291-3.354-.938-.94-2.073-1.23-3.354-1.291-1.105-.062-2.199-.052-3.302-.052-1.105 0-2.2-.01-3.302.052-1.281.062-2.418.354-3.355 1.29-.938.94-1.228 2.074-1.29 3.355-.062 1.104-.052 2.2-.052 3.302 0 1.103-.01 2.2.052 3.302.062 1.281.354 2.418 1.29 3.355.939.938 2.074 1.228 3.355 1.29 1.104.062 2.199.052 3.302.052 1.105 0 2.199.01 3.302-.052 1.281-.062 2.418-.354 3.354-1.29.939-.94 1.229-2.074 1.291-3.355.064-1.102.052-2.197.052-3.302Zm-1.761 4.72a2.544 2.544 0 0 1-.604.916 2.57 2.57 0 0 1-.917.604c-1.053.419-3.552.324-4.719.324-1.167 0-3.669.095-4.721-.322a2.545 2.545 0 0 1-.917-.604 2.56 2.56 0 0 1-.604-.917c-.417-1.055-.322-3.554-.322-4.721 0-1.167-.095-3.669.322-4.721.146-.364.322-.637.604-.917s.553-.458.917-.604c1.052-.416 3.554-.322 4.721-.322 1.167 0 3.668-.095 4.721.322.364.146.636.322.917.604.282.282.458.553.604.917.416 1.052.322 3.554.322 4.721 0 1.167.094 3.666-.324 4.72Z" fill="#0F172A"/><circle cx="171.5" cy="21" r="20.5" fill="#E2E8F0" stroke="#0F172A"/><path d="M165.423 16.852a1.925 1.925 0 0 0 1.923-1.926A1.925 1.925 0 0 0 165.423 13a1.925 1.925 0 0 0-1.923 1.926c0 1.064.861 1.926 1.923 1.926Zm3.739 1.46V29h3.312v-5.285c0-1.394.262-2.745 1.988-2.745 1.703 0 1.724 1.595 1.724 2.833V29h3.314v-5.86c0-2.88-.619-5.092-3.978-5.092-1.613 0-2.694.887-3.136 1.726h-.044v-1.462h-3.18Zm-5.398 0h3.317V29h-3.317V18.312Z" fill="#0F172A"/></svg>