<svg width="20" height="20" fill="none" xmlns="http://www.w3.org/2000/svg"><path fill-rule="evenodd" clip-rule="evenodd" d="M1.446 4.357c0-1.62 1.33-2.932 2.973-2.932 1.642 0 2.973 1.313 2.973 2.932S6.06 7.288 4.419 7.288 1.446 5.976 1.446 4.357ZM4.419 0C1.979 0 0 1.95 0 4.357c0 2.406 1.978 4.356 4.419 4.356 2.44 0 4.418-1.95 4.418-4.356C8.837 1.95 6.86 0 4.42 0Zm2.924 15.444-5.334 2.909v-5.819l5.334 2.91Zm-5.11-4.417c-.75-.409-1.67.126-1.67.97v6.893c0 .844.92 1.379 1.67.97l6.318-3.447a1.101 1.101 0 0 0 0-1.94l-6.319-3.446Zm9.093 1.249c0-.612.503-1.109 1.124-1.109h6.426c.62 0 1.124.497 1.124 1.109v6.335c0 .612-.503 1.108-1.124 1.108H12.45a1.117 1.117 0 0 1-1.124-1.108v-6.335Zm1.446.316v5.702h5.782v-5.702h-5.782Zm6.815-11.097a.706.706 0 0 0 0-1.008.73.73 0 0 0-1.022 0L15.663 3.35 12.76.487a.73.73 0 0 0-1.023 0 .706.706 0 0 0 0 1.008l2.903 2.862-2.903 2.861a.706.706 0 0 0 0 1.008.73.73 0 0 0 1.023 0l2.902-2.861 2.902 2.861a.73.73 0 0 0 1.022 0 .706.706 0 0 0 0-1.008l-2.902-2.861 2.902-2.862Z" fill="#fff"/></svg>