<svg width="30" height="30" fill="none" xmlns="http://www.w3.org/2000/svg"><circle cx="15" cy="15" r="15" fill="#E2E8F0"/><path d="M9.933 23H8.866a.8.8 0 0 1-.8-.8v-4.8a.8.8 0 0 1 .8-.8h1.067a.8.8 0 0 1 .8.8v4.8a.8.8 0 0 1-.8.8Z" fill="url(#a)"/><path d="M17.4 23h-1.067a.8.8 0 0 1-.8-.8v-8a.8.8 0 0 1 .8-.8H17.4a.8.8 0 0 1 .8.8v8a.8.8 0 0 1-.8.8Z" fill="url(#b)"/><path d="M21.133 23h-1.067a.8.8 0 0 1-.8-.8V10.467a.8.8 0 0 1 .8-.8h1.067a.8.8 0 0 1 .8.8V22.2a.8.8 0 0 1-.8.8Z" fill="url(#c)"/><path d="M13.666 23H12.6a.8.8 0 0 1-.8-.8V7.8a.8.8 0 0 1 .8-.8h1.066a.8.8 0 0 1 .8.8v14.4a.8.8 0 0 1-.8.8Z" fill="url(#d)"/><defs><linearGradient id="a" x1="8.066" y1="15" x2="21.933" y2="15" gradientUnits="userSpaceOnUse"><stop stop-color="#4776E6"/><stop offset="1" stop-color="#8E54E9"/></linearGradient><linearGradient id="b" x1="8.066" y1="15" x2="21.933" y2="15" gradientUnits="userSpaceOnUse"><stop stop-color="#4776E6"/><stop offset="1" stop-color="#8E54E9"/></linearGradient><linearGradient id="c" x1="8.066" y1="15" x2="21.933" y2="15" gradientUnits="userSpaceOnUse"><stop stop-color="#4776E6"/><stop offset="1" stop-color="#8E54E9"/></linearGradient><linearGradient id="d" x1="8.066" y1="15" x2="21.933" y2="15" gradientUnits="userSpaceOnUse"><stop stop-color="#4776E6"/><stop offset="1" stop-color="#8E54E9"/></linearGradient></defs></svg>