<svg width="30" height="30" fill="none" xmlns="http://www.w3.org/2000/svg"><circle cx="15" cy="15" r="15" fill="#E2E8F0"/><path d="M21.661 11.664a4.375 4.375 0 0 0-.922-1.39 4.275 4.275 0 0 0-1.361-.933A4.214 4.214 0 0 0 15 9.993a4.214 4.214 0 0 0-5.738.28c-.393.397-.706.87-.923 1.391A4.443 4.443 0 0 0 8 13.376c0 .56.11 1.142.329 1.735a7.87 7.87 0 0 0 .781 1.529c.532.82 1.263 1.678 2.17 2.546a24.379 24.379 0 0 0 3.056 2.474l.384.256c.17.112.39.112.56 0l.384-.256a24.694 24.694 0 0 0 3.056-2.474c.908-.868 1.638-1.725 2.17-2.546.335-.52.6-1.034.781-1.53A5.015 5.015 0 0 0 22 13.377a4.413 4.413 0 0 0-.339-1.712Zm-6.66 8.923s-5.77-3.832-5.77-7.211c0-1.712 1.367-3.1 3.052-3.1 1.185 0 2.212.686 2.718 1.687a3.048 3.048 0 0 1 2.717-1.686c1.686 0 3.052 1.387 3.052 3.099 0 3.38-5.77 7.21-5.77 7.21Z" fill="url(#a)"/><defs><linearGradient id="a" x1="8" y1="15.5" x2="22" y2="15.5" gradientUnits="userSpaceOnUse"><stop stop-color="#4776E6"/><stop offset="1" stop-color="#8E54E9"/></linearGradient></defs></svg>