<?xml version="1.0" standalone="no"?><svg xmlns="http://www.w3.org/2000/svg" viewBox="0 0 1440 320"><path fill="hsl(222, 46%, 11%)" fill-opacity="1" d="M0,256L21.8,250.7C43.6,245,87,235,131,240C174.5,245,218,267,262,234.7C305.5,203,349,117,393,112C436.4,107,480,181,524,181.3C567.3,181,611,107,655,85.3C698.2,64,742,96,785,117.3C829.1,139,873,149,916,154.7C960,160,1004,160,1047,176C1090.9,192,1135,224,1178,229.3C1221.8,235,1265,213,1309,202.7C1352.7,192,1396,192,1418,192L1440,192L1440,320L1418.2,320C1396.4,320,1353,320,1309,320C1265.5,320,1222,320,1178,320C1134.5,320,1091,320,1047,320C1003.6,320,960,320,916,320C872.7,320,829,320,785,320C741.8,320,698,320,655,320C610.9,320,567,320,524,320C480,320,436,320,393,320C349.1,320,305,320,262,320C218.2,320,175,320,131,320C87.3,320,44,320,22,320L0,320Z"></path></svg>