<?xml version="1.0" standalone="no"?><svg xmlns="http://www.w3.org/2000/svg" viewBox="0 0 1440 320"><path fill="hsl(222, 47%, 11%)" fill-opacity="1" d="M0,160L30,144C60,128,120,96,180,112C240,128,300,192,360,202.7C420,213,480,171,540,128C600,85,660,43,720,58.7C780,75,840,149,900,149.3C960,149,1020,75,1080,53.3C1140,32,1200,64,1260,85.3C1320,107,1380,117,1410,122.7L1440,128L1440,320L1410,320C1380,320,1320,320,1260,320C1200,320,1140,320,1080,320C1020,320,960,320,900,320C840,320,780,320,720,320C660,320,600,320,540,320C480,320,420,320,360,320C300,320,240,320,180,320C120,320,60,320,30,320L0,320Z"></path></svg>