<?xml version="1.0" standalone="no"?><svg xmlns="http://www.w3.org/2000/svg" viewBox="0 0 1440 320"><path fill="hsl(222, 46%, 11%)" fill-opacity="1" d="M0,224L26.7,197.3C53.3,171,107,117,160,117.3C213.3,117,267,171,320,176C373.3,181,427,139,480,117.3C533.3,96,587,96,640,85.3C693.3,75,747,53,800,80C853.3,107,907,181,960,218.7C1013.3,256,1067,256,1120,224C1173.3,192,1227,128,1280,112C1333.3,96,1387,128,1413,144L1440,160L1440,0L1413.3,0C1386.7,0,1333,0,1280,0C1226.7,0,1173,0,1120,0C1066.7,0,1013,0,960,0C906.7,0,853,0,800,0C746.7,0,693,0,640,0C586.7,0,533,0,480,0C426.7,0,373,0,320,0C266.7,0,213,0,160,0C106.7,0,53,0,27,0L0,0Z"></path></svg>