<?xml version="1.0" standalone="no"?><svg xmlns="http://www.w3.org/2000/svg" viewBox="0 0 1440 320"><path fill="hsl(222, 46%, 11%)" fill-opacity="1" d="M0,32L21.8,48C43.6,64,87,96,131,101.3C174.5,107,218,85,262,117.3C305.5,149,349,235,393,250.7C436.4,267,480,213,524,165.3C567.3,117,611,75,655,64C698.2,53,742,75,785,106.7C829.1,139,873,181,916,186.7C960,192,1004,160,1047,149.3C1090.9,139,1135,149,1178,154.7C1221.8,160,1265,160,1309,170.7C1352.7,181,1396,203,1418,213.3L1440,224L1440,0L1418.2,0C1396.4,0,1353,0,1309,0C1265.5,0,1222,0,1178,0C1134.5,0,1091,0,1047,0C1003.6,0,960,0,916,0C872.7,0,829,0,785,0C741.8,0,698,0,655,0C610.9,0,567,0,524,0C480,0,436,0,393,0C349.1,0,305,0,262,0C218.2,0,175,0,131,0C87.3,0,44,0,22,0L0,0Z"></path></svg>