<?xml version="1.0" standalone="no"?><svg xmlns="http://www.w3.org/2000/svg" viewBox="0 0 1440 320"><path fill="hsl(222, 46%, 11%)" fill-opacity="1" d="M0,128L21.8,117.3C43.6,107,87,85,131,90.7C174.5,96,218,128,262,122.7C305.5,117,349,75,393,58.7C436.4,43,480,53,524,74.7C567.3,96,611,128,655,170.7C698.2,213,742,267,785,245.3C829.1,224,873,128,916,74.7C960,21,1004,11,1047,16C1090.9,21,1135,43,1178,69.3C1221.8,96,1265,128,1309,160C1352.7,192,1396,224,1418,240L1440,256L1440,0L1418.2,0C1396.4,0,1353,0,1309,0C1265.5,0,1222,0,1178,0C1134.5,0,1091,0,1047,0C1003.6,0,960,0,916,0C872.7,0,829,0,785,0C741.8,0,698,0,655,0C610.9,0,567,0,524,0C480,0,436,0,393,0C349.1,0,305,0,262,0C218.2,0,175,0,131,0C87.3,0,44,0,22,0L0,0Z"></path></svg>