<?xml version="1.0" standalone="no"?><svg xmlns="http://www.w3.org/2000/svg" viewBox="0 0 1440 320"><path fill="hsl(222, 47%, 11%)" fill-opacity="1" d="M0,256L26.7,234.7C53.3,213,107,171,160,170.7C213.3,171,267,213,320,218.7C373.3,224,427,192,480,192C533.3,192,587,224,640,234.7C693.3,245,747,235,800,240C853.3,245,907,267,960,250.7C1013.3,235,1067,181,1120,170.7C1173.3,160,1227,192,1280,192C1333.3,192,1387,160,1413,144L1440,128L1440,320L1413.3,320C1386.7,320,1333,320,1280,320C1226.7,320,1173,320,1120,320C1066.7,320,1013,320,960,320C906.7,320,853,320,800,320C746.7,320,693,320,640,320C586.7,320,533,320,480,320C426.7,320,373,320,320,320C266.7,320,213,320,160,320C106.7,320,53,320,27,320L0,320Z"></path></svg>