<svg xmlns="http://www.w3.org/2000/svg" width="502" height="398" fill="none"><ellipse fill="hsl(217, 91%, 60%)" rx="2.758" ry="2.529" transform="matrix(0 1 1 0 385.296 130.297)"/><circle r="2.758" fill="hsl(217, 91%, 60%)" transform="matrix(0 1 1 0 300.934 323.846)"/><path stroke="hsl(217, 91%, 60%)" stroke-dasharray=".25 10" stroke-linecap="round" stroke-width="3" d="M385.129 130.297c63.442 0 114.871 51.56 114.871 115.164 0 63.603-51.429 115.164-114.871 115.164-33.018 0-62.782-13.966-83.736-36.327"/><ellipse fill="hsl(217, 91%, 60%)" rx=".947" ry=".868" transform="scale(1 -1) rotate(70.309 112.354 7.314)"/><circle r=".947" fill="hsl(217, 91%, 60%)" transform="scale(1 -1) rotate(70.309 99.69 68.988)"/><path stroke="hsl(217, 91%, 60%)" stroke-dasharray=".25 10" stroke-linecap="round" stroke-width="3" d="M81.437 100.954c-20.511-7.34-31.173-29.962-23.814-50.526 7.36-20.564 29.953-31.284 50.465-23.943 10.675 3.82 18.682 11.78 22.87 21.434"/><circle cx="80.921" cy="299.055" r="36.322" stroke="hsl(217, 91%, 60%)" stroke-width="3"/><circle cx="443.745" cy="64.649" r="14.272" stroke="hsl(217, 33%, 17%)" stroke-width="4"/><path fill="hsl(217, 91%, 60%)" d="M357.107 0c-21.86 0-39.581 17.72-39.581 39.58h79.162c0-21.86-17.721-39.58-39.581-39.58Z"/><path fill="hsl(217, 33%, 17%)" d="M24.628 391.41c13.602 0 24.628-11.026 24.628-24.628H0c0 13.602 11.026 24.628 24.628 24.628Zm171.517-119.519h77.403v49.116h-77.403z"/><path fill="hsl(214, 20%, 34%)" d="M196.02 321.254h77.44c0 9.356-7.585 16.94-16.94 16.94h-43.56c-9.356 0-16.94-7.584-16.94-16.94Z"/><path fill="hsl(217, 91%, 60%)" fill-rule="evenodd" d="M330.943 144.118c0 15.774-3.829 30.657-10.611 43.777h.29c-.157.116-.315.233-.473.352a95.942 95.942 0 0 1-12.377 18.223l.393-.067c-.484.408-.971.837-1.461 1.285a96.553 96.553 0 0 1-5.581 5.757c-7.669 8.71-15.263 20.313-19.796 27.919-4.105 9.956-7.054 20.64-8.042 31.595h-76.878c-.98-10.868-4.124-21.995-8.512-32.636-4.265-6.036-13.321-17.82-21.692-28.714l-1.917-2.494a96.237 96.237 0 0 1-11.263-14.763l-.037-.05.009.005a95.496 95.496 0 0 1-6.594-12.686 10.19 10.19 0 0 0-.178-.132l.126.008c-4.893-11.484-7.6-24.117-7.6-37.379 0-52.877 43.024-95.742 96.097-95.742 53.073 0 96.097 42.865 96.097 95.742Z" clip-rule="evenodd"/><path fill="hsl(214, 20%, 34%)" d="M288.381 144.127c-3.479-17.855-13.374-32.53-23.576-42.918-3.662-3.729-.684-10.942 4.364-9.586 33.306 8.947 38.291 32.669 32.781 55.869-1.37 5.771-12.435 2.456-13.569-3.365Z"/><path fill="hsl(217, 33%, 17%)" d="M431.187 147.972c0 .955-.501 1.841-1.32 2.333l-15.881 9.547c-1.815 1.09-4.125-.217-4.125-2.334V138.69c0-.955.501-1.841 1.319-2.333l15.882-9.547c1.814-1.09 4.125.217 4.125 2.334v18.828Zm-45.375 0c0 .955.501 1.841 1.32 2.333l15.881 9.547c1.815 1.09 4.125-.217 4.125-2.334V138.69c0-.955-.501-1.841-1.32-2.333l-15.881-9.547c-1.815-1.09-4.125.217-4.125 2.334v18.828Z"/><path fill="hsl(217, 91%, 60%)" d="M391.451 124.179c-1.94-1.165-1.94-3.976 0-5.142l15.503-9.319a2.998 2.998 0 0 1 3.091 0l15.503 9.319c1.939 1.166 1.939 3.977 0 5.142l-15.503 9.32a3.003 3.003 0 0 1-3.091 0l-15.503-9.32ZM114.95 314.297h39.022v37.652a5 5 0 0 1-5 5H119.95a5 5 0 0 1-5-5v-37.652Z"/><rect width="28.132" height="5.445" x="120.395" y="324.279" fill="hsl(217, 33%, 17%)" rx="2.722"/><rect width="28.132" height="5.445" x="120.395" y="334.262" fill="hsl(217, 33%, 17%)" rx="2.723"/><rect width="17.242" height="5.445" x="120.395" y="344.244" fill="hsl(217, 33%, 17%)" rx="2.723"/><path fill="hsl(217, 33%, 17%)" d="M114.95 313.852a5 5 0 0 1 5-5h29.022a5 5 0 0 1 5 5v4.982H114.95v-4.982Z"/><path fill="hsl(217, 91%, 60%)" d="M123.117 313.843a2.268 2.268 0 1 1-4.537.001 2.268 2.268 0 0 1 4.537-.001Zm7.26 0a2.268 2.268 0 1 1-4.537.001 2.268 2.268 0 0 1 4.537-.001Z"/><path fill="hsl(217, 33%, 17%)" d="M272.177 384.551c0 4.47-16.823 8.093-37.576 8.093s-37.577-3.623-37.577-8.093 16.824-8.094 37.577-8.094c20.753 0 37.576 3.624 37.576 8.094Z"/><path fill="hsl(214, 20%, 34%)" d="M196.145 284.102h77.403v8.796h-77.403zm0 18.471h77.403v8.796h-77.403z"/><path fill="hsl(217, 33%, 17%)" fill-rule="evenodd" d="M362.429 270.51a3.418 3.418 0 0 1 3.418-3.418h33.752a3.418 3.418 0 0 1 3.418 3.418v4.83a3.157 3.157 0 1 0 0 6.052v4.379a3.418 3.418 0 0 1-3.418 3.418h-33.752a3.418 3.418 0 0 1-3.418-3.418v-4.552a3.158 3.158 0 1 0 0-5.706v-5.003Z" clip-rule="evenodd"/><path fill="hsl(217, 91%, 60%)" fill-rule="evenodd" d="M353.626 263.612a3.417 3.417 0 0 1 3.414-3.421l33.752-.038a3.418 3.418 0 0 1 3.421 3.415l.006 4.83a3.157 3.157 0 1 0 .006 6.052l.005 4.379a3.418 3.418 0 0 1-3.414 3.422l-33.752.037a3.417 3.417 0 0 1-3.421-3.414l-.006-4.552a3.157 3.157 0 1 0-.006-5.706l-.005-5.004Z" clip-rule="evenodd"/><path fill="hsl(217, 33%, 17%)" d="M364.76 272.985a1.842 1.842 0 0 1-.004-3.683l11.049-.013a1.842 1.842 0 0 1 .004 3.683l-11.049.013Z"/><path fill="hsl(217, 33%, 17%)" fill-rule="evenodd" d="M384.433 262.334c.755 0 1.368.612 1.368 1.368v.041a1.368 1.368 0 0 1-2.735 0v-.041c0-.756.612-1.368 1.367-1.368Zm0 7.479c.755 0 1.368.612 1.368 1.367v.083a1.368 1.368 0 0 1-2.735 0v-.083c0-.755.612-1.367 1.367-1.367Zm0 7.519c.755 0 1.368.612 1.368 1.368v.041a1.368 1.368 0 0 1-2.735 0v-.041c0-.756.612-1.368 1.367-1.368Z" clip-rule="evenodd"/><path fill="hsl(217, 33%, 17%)" d="M55.055 154.281c0-1.34 1.25-2.426 2.794-2.426h29.804c1.543 0 2.794 1.086 2.794 2.426v38.825c0 1.341-1.25 2.427-2.794 2.427H57.85c-1.543 0-2.794-1.086-2.794-2.427v-38.825Z"/><path fill="hsl(217, 91%, 60%)" d="M47.795 147.021c0-1.34 1.25-2.426 2.794-2.426h29.804c1.543 0 2.794 1.086 2.794 2.426v38.825c0 1.341-1.25 2.427-2.794 2.427H50.59c-1.543 0-2.794-1.086-2.794-2.427v-38.825Z"/><path fill="hsl(217, 33%, 17%)" d="M52.452 150.257c0-.894.834-1.618 1.863-1.618h22.353c1.029 0 1.862.724 1.862 1.618v21.03c0 .893-.833 1.618-1.862 1.618H54.315c-1.03 0-1.863-.725-1.863-1.618v-21.03Zm0 29.523c0-1.564 1.46-2.831 3.26-2.831h9.313c1.8 0 3.26 1.267 3.26 2.831 0 1.563-1.46 2.831-3.26 2.831h-9.313c-1.8 0-3.26-1.268-3.26-2.831Z"/></svg>